<svg height="512" viewBox="0 0 512 512" width="512" xmlns="http://www.w3.org/2000/svg"><g id="flat"><path d="m114 214a84.934 84.934 0 0 1 53-24.582l21.571-1.8a190.257 190.257 0 0 1 84.1 12.024 109.22 109.22 0 0 1 69.552 91.922l1.777 19.275-248 1.161-4.337-17.35a84.927 84.927 0 0 1 22.337-80.65z" fill="#d78e0c"/><path d="m342.656 307.562-11.219-16.829a77.843 77.843 0 0 0 -64.9-34.733h-18.537l14.4-19.2a8 8 0 1 0 -12.8-9.6l-34.819 48.4a8 8 0 1 0 13.364 8.8l8.166-12.4h15.378l-2.371 3.6a8 8 0 1 0 13.364 8.8l8.069-12.254a61.861 61.861 0 0 1 47.373 27.462l2.859 4.289-122.227-.834a30.936 30.936 0 0 1 -21.694-52.811l12.6-12.595a8 8 0 0 0 -11.314-11.314l-12.6 12.6a46.936 46.936 0 0 0 32.908 80.124l137.29.937h.054a8 8 0 0 0 6.656-12.438z" fill="#b2750a"/><path d="m184.764 294.412 23.236 17.427v48l-23.236 17.427a107.058 107.058 0 0 1 -90.2 18.215 61.477 61.477 0 0 1 -46.564-59.642 61.477 61.477 0 0 1 46.567-59.639 107.055 107.055 0 0 1 90.197 18.212z" fill="#ee9d0d"/><path d="m265.371 311.839h-57.371v48h57.371a24 24 0 1 0 40.513-24 24 24 0 1 0 -40.513-24z" fill="#cdccc8"/><circle cx="136" cy="334.839" fill="#c7830b" r="8"/><circle cx="120" cy="305" fill="#c7830b" r="8"/><circle cx="136" cy="240" fill="#b2750a" r="8"/><circle cx="230.983" cy="217.017" fill="#b2750a" r="8"/><circle cx="184" cy="335.839" fill="#c7830b" r="8"/><path d="m304 328-3.076 12.306a26 26 0 0 1 -25.224 19.694h-71.4a26 26 0 0 1 -25.224-19.694l-3.076-12.306h-144l16 112h384l16-112z" fill="#cb2527"/><path d="m375.914 349.5-32.343 4.62-38.179-38.18 4.62-32.343a120.421 120.421 0 0 1 57.254-86.23 69.152 69.152 0 0 1 84.477 10.4 69.152 69.152 0 0 1 10.4 84.477 120.422 120.422 0 0 1 -86.229 57.256z" fill="#ee9d0d"/><path d="m297.938 399.752 45.633-45.633-38.179-38.179-45.633 45.633a27 27 0 1 0 -13.134 51.313 27 27 0 1 0 51.313-13.134z" fill="#dcdbd6"/><path d="m297.94 399.75a27 27 0 0 1 -43.45 30.73 25.406 25.406 0 0 1 -2.94-3.49 27 27 0 0 0 38.58-34.59l45.87-45.851 7.571 7.571z" fill="#cdccc8"/><g fill="#c7830b"><circle cx="394.476" cy="265.035" r="8.999"/><circle cx="394.476" cy="303.214" r="8.999"/><circle cx="356.297" cy="303.214" r="8.999"/></g><path d="m96 416h-16a8 8 0 0 1 0-16h16a8 8 0 0 1 0 16z" fill="#ea2b2d"/><path d="m176 416h-48a8 8 0 0 1 0-16h48a8 8 0 0 1 0 16z" fill="#ea2b2d"/><path d="m404 160a8 8 0 0 1 -8-8c0-8.422 3.089-13.055 5.344-16.438 1.768-2.653 2.656-3.985 2.656-7.562s-.888-4.91-2.656-7.563c-2.255-3.384-5.344-8.017-5.344-16.437s3.089-13.055 5.344-16.437c1.768-2.654 2.656-3.986 2.656-7.563a8 8 0 0 1 16 0c0 8.422-3.089 13.055-5.344 16.437-1.768 2.652-2.656 3.984-2.656 7.563s.888 4.91 2.656 7.563c2.255 3.381 5.344 8.014 5.344 16.437s-3.089 13.055-5.344 16.438c-1.768 2.652-2.656 3.984-2.656 7.562a8 8 0 0 1 -8 8z" fill="#ffc864"/><path d="m448 160a8 8 0 0 1 -8-8c0-8.422 3.089-13.055 5.344-16.438 1.768-2.653 2.656-3.985 2.656-7.562s-.888-4.91-2.656-7.563c-2.255-3.384-5.344-8.017-5.344-16.437a26.323 26.323 0 0 1 2.381-11.384 8 8 0 1 1 14.5 6.772 10.217 10.217 0 0 0 -.881 4.612c0 3.578.888 4.91 2.656 7.563 2.256 3.381 5.344 8.014 5.344 16.437s-3.089 13.055-5.344 16.438c-1.768 2.652-2.656 3.984-2.656 7.562a8 8 0 0 1 -8 8z" fill="#ffc864"/><path d="m360 160a8 8 0 0 1 -8-8c0-8.422 3.089-13.055 5.344-16.438 1.768-2.653 2.656-3.985 2.656-7.562s-.888-4.91-2.656-7.563c-2.255-3.384-5.344-8.017-5.344-16.437a26.323 26.323 0 0 1 2.381-11.384 8 8 0 1 1 14.5 6.772 10.217 10.217 0 0 0 -.881 4.612c0 3.578.888 4.91 2.656 7.563 2.256 3.381 5.344 8.014 5.344 16.437s-3.089 13.055-5.344 16.438c-1.768 2.652-2.656 3.984-2.656 7.562a8 8 0 0 1 -8 8z" fill="#ffc864"/></g></svg>