<?xml version="1.0" encoding="iso-8859-1"?>
<!-- Generator: Adobe Illustrator 19.0.0, SVG Export Plug-In . SVG Version: 6.00 Build 0)  -->
<svg xmlns="http://www.w3.org/2000/svg" xmlns:xlink="http://www.w3.org/1999/xlink" version="1.1" id="Layer_1" x="0px" y="0px" viewBox="0 0 512 512" style="enable-background:new 0 0 512 512;" xml:space="preserve" width="512" height="512">
<g id="XMLID_1108_">
	<g id="XMLID_513_">
		<g id="XMLID_502_">
			<path style="fill:#F9E8D4;" d="M141.92,42.268c-11.533,8.477-22.334,18.201-30.437,30.001     c-7.63,11.112-12.675,23.768-17.261,36.443c-10.556,29.172-19.058,61.053-10.579,90.896c5.623,19.79,18.192,36.714,28.836,54.32     s19.778,37.607,17.3,58.03c-1.686,13.895,1.053,68.123,105.575,94.685c51.738,13.148,107.576,15.511,156.664-5.465     c49.088-20.976,89.636-62.667,106.092-113.45c4.209-12.988,6.888-26.619,6.219-40.256c-0.603-12.286-3.953-24.43-9.735-35.287     c-6.412-12.041-16.025-23.347-16.418-36.983c-0.192-6.646,1.887-13.114,3.225-19.627c7.017-34.164-7.086-70.345-30.864-95.86     c-23.778-25.516-55.089-45.587-89.314-52.3C273.687-9.759,194.899,3.327,141.92,42.268z"/>
		</g>
		<circle id="XMLID_506_" style="fill:#FEC007;" cx="341.672" cy="207.965" r="86.057"/>
		<path id="XMLID_1043_" style="fill:#F9E8D4;" d="M498.105,287.73c-16.448,50.776-57.001,92.47-106.092,113.448    c-12.341,5.277-25.105,9.071-38.132,11.594c-38.768,7.507-79.796,3.703-118.523-6.135    c-104.528-26.558-107.262-80.785-105.577-94.68c2.472-20.423-6.66-40.423-17.305-58.031    c-10.635-17.608-23.208-34.53-28.829-54.317c-5.146-18.113-4.046-36.982-0.01-55.528c2.603-12.018,6.438-23.904,10.585-35.367    c4.591-12.674,9.637-25.337,17.265-36.447c8.103-11.796,18.9-21.523,30.433-29.999C194.894,3.328,273.692-9.759,361.227,7.415    c34.217,6.71,65.528,26.78,89.311,52.299c23.773,25.519,37.88,61.694,30.867,95.86c-1.342,6.508-3.421,12.976-3.229,19.626    c0.394,13.632,10.01,24.944,16.417,36.982c5.782,10.857,9.132,23.006,9.737,35.287    C504.997,261.111,502.323,274.743,498.105,287.73z"/>
		<path id="XMLID_1041_" style="fill:#EFCDB1;" d="M353.881,412.772c-38.768,7.507-79.796,3.703-118.523-6.135    c-104.528-26.558-107.262-80.785-105.577-94.68c2.472-20.423-6.66-40.423-17.305-58.031    c-10.635-17.608-23.208-34.53-28.829-54.317c-5.146-18.113-4.046-36.982-0.01-55.528l9.223,3.764    c9.041,3.683,17.729,9.536,25.115,16.932c7.386,7.386,13.239,16.064,16.922,25.105c2.179,5.338,5.741,10.575,10.302,15.146    c4.561,4.551,9.798,8.113,15.136,10.292c9.041,3.683,17.729,9.536,25.115,16.932c7.386,7.386,13.239,16.064,16.922,25.105    c2.18,5.338,5.742,10.575,10.303,15.136c4.561,4.561,9.798,8.123,15.136,10.302c9.041,3.683,17.729,9.536,25.115,16.932    c7.386,7.376,13.239,16.064,16.922,25.105c2.18,5.338,5.741,10.575,10.302,15.136c4.571,4.571,9.798,8.123,15.126,10.292    c9.051,3.693,17.729,9.546,25.126,16.942c7.396,7.386,13.249,16.074,16.922,25.115c2.18,5.328,5.742,10.565,10.303,15.126    C349.603,409.422,351.701,411.208,353.881,412.772z"/>
		<circle id="XMLID_1515_" style="fill:#EFCDB1;" cx="341.672" cy="207.965" r="104.013"/>
		<path id="XMLID_1468_" style="fill:#EFCDB1;" d="M498.105,287.73c-16.448,50.776-57.001,92.47-106.092,113.448    c-30.171,12.896-62.904,16.972-95.658,15.136c26.619-0.373,52.905-5.035,77.495-15.539    c49.09-20.978,89.644-62.662,106.092-113.448c4.218-12.987,6.892-26.619,6.226-40.261c-0.605-12.28-3.956-24.429-9.737-35.287    c-6.407-12.038-16.024-23.339-16.417-36.982c-0.192-6.64,1.887-13.108,3.229-19.626c7.013-34.167-7.094-70.341-30.867-95.86    c-23.783-25.509-55.094-45.589-89.311-52.299c-19.465-3.814-38.495-6.145-56.901-7.003c23.965-0.111,49.131,2.321,75.064,7.406    c34.217,6.71,65.528,26.78,89.311,52.299c23.773,25.519,37.88,61.694,30.867,95.86c-1.342,6.508-3.421,12.976-3.229,19.626    c0.394,13.632,10.01,24.944,16.417,36.982c5.782,10.857,9.132,23.006,9.737,35.287    C504.997,261.111,502.323,274.743,498.105,287.73z"/>
		<circle id="XMLID_480_" style="fill:#FEC007;" cx="341.672" cy="207.965" r="86.057"/>
		<circle id="XMLID_1486_" style="fill:#F9DE69;" cx="328.918" cy="182.712" r="28.814"/>
	</g>
	<path id="XMLID_333_" style="fill:#EFCDB1;" d="M376.06,75.478c-4.282,0-7.752-3.47-7.752-7.752v-1.664   c0-4.282,3.47-7.752,7.752-7.752s7.752,3.47,7.752,7.752v1.664C383.813,72.007,380.342,75.478,376.06,75.478z"/>
	<path id="XMLID_323_" style="fill:#EFCDB1;" d="M186.358,153.513c-4.282,0-7.752-3.47-7.752-7.752v-1.664   c0-4.282,3.47-7.752,7.752-7.752c4.282,0,7.752,3.47,7.752,7.752v1.664C194.11,150.043,190.64,153.513,186.358,153.513z"/>
	<path id="XMLID_325_" style="fill:#EFCDB1;" d="M395.297,89.765c-4.282,0-7.752-3.47-7.752-7.752v-1.664   c0-4.282,3.47-7.752,7.752-7.752c4.282,0,7.752,3.47,7.752,7.752v1.664C403.05,86.295,399.579,89.765,395.297,89.765z"/>
	<path id="XMLID_335_" style="fill:#EFCDB1;" d="M219.657,152.681c-4.282,0-7.752-3.47-7.752-7.752v-1.665   c0-4.282,3.47-7.752,7.752-7.752c4.282,0,7.752,3.47,7.752,7.752v1.665C227.409,149.211,223.939,152.681,219.657,152.681z"/>
	<path id="XMLID_677_" style="fill:#EFCDB1;" d="M213.602,241.01c-4.282,0-7.752-3.47-7.752-7.752v-1.664   c0-4.282,3.47-7.752,7.752-7.752c4.282,0,7.752,3.47,7.752,7.752v1.664C221.354,237.54,217.884,241.01,213.602,241.01z"/>
	<path id="XMLID_709_" style="fill:#EFCDB1;" d="M232.775,73.16c-4.282,0-7.752-3.47-7.752-7.752v-1.664   c0-4.282,3.47-7.752,7.752-7.752c4.282,0,7.752,3.47,7.752,7.752v1.664C240.527,69.69,237.057,73.16,232.775,73.16z"/>
	<path id="XMLID_729_" style="fill:#EFCDB1;" d="M413.395,312.81c-4.282,0-7.752-3.47-7.752-7.752v-1.664   c0-4.282,3.47-7.752,7.752-7.752c4.282,0,7.752,3.47,7.752,7.752v1.664C421.147,309.34,417.677,312.81,413.395,312.81z"/>
	<path id="XMLID_2219_" style="fill:#EFCDB1;" d="M395.297,342.073c-4.282,0-7.752-3.47-7.752-7.752v-1.664   c0-4.282,3.47-7.752,7.752-7.752c4.282,0,7.752,3.47,7.752,7.752v1.664C403.05,338.603,399.579,342.073,395.297,342.073z"/>
	<g id="XMLID_1017_">
		<g id="XMLID_1029_">
			<path id="XMLID_1044_" style="fill:#FB4239;" d="M296.1,458.486c-6.277-6.277-10.912-13.332-13.766-20.345     c-2.855-7.013-7.489-14.068-13.766-20.345c-6.277-6.277-13.333-10.912-20.345-13.766c-7.013-2.855-14.068-7.489-20.345-13.766     c-6.277-6.277-10.912-13.332-13.766-20.345c-2.855-7.013-7.489-14.068-13.766-20.345c-6.277-6.277-13.333-10.912-20.345-13.766     c-7.013-2.855-14.068-7.489-20.345-13.766s-10.912-13.332-13.766-20.345c-2.855-7.013-7.489-14.068-13.766-20.345     c-6.277-6.277-13.333-10.912-20.345-13.766c-7.013-2.855-14.068-7.489-20.345-13.766s-10.912-13.332-13.766-20.345     c-2.855-7.013-7.489-14.068-13.766-20.345c-6.277-6.277-13.333-10.912-20.345-13.766L9.966,232.943     c-3.673,3.673-3.047,9.824,1.334,12.614c3.871,2.465,7.641,5.474,11.169,9.001c6.274,6.274,10.909,13.322,13.761,20.344     c2.859,7.014,7.494,14.063,13.775,20.344c6.274,6.274,13.322,10.909,20.337,13.768c7.021,2.852,14.07,7.487,20.35,13.768     c6.274,6.274,10.909,13.322,13.761,20.344c2.859,7.014,7.494,14.063,13.775,20.344c6.274,6.274,13.322,10.909,20.337,13.768     c7.021,2.852,14.07,7.487,20.351,13.768c6.274,6.274,10.909,13.322,13.761,20.344c2.859,7.014,7.494,14.063,13.775,20.344     c6.274,6.274,13.329,10.916,20.337,13.768c7.021,2.852,14.07,7.487,20.351,13.768c6.274,6.274,10.916,13.329,13.761,20.344     c2.859,7.014,7.494,14.063,13.775,20.344c4.577,4.577,9.571,8.286,14.658,11.065c3.202,1.749,7.167,1.216,9.747-1.364     l37.365-37.365C309.432,469.397,302.377,464.763,296.1,458.486z"/>
			<path id="XMLID_1033_" style="fill:#F9E8D4;" d="M315.025,473.673c-7.294-2.573-14.513-7.045-20.79-13.322     c-6.277-6.277-10.748-13.496-13.322-20.79c-2.574-7.294-7.045-14.513-13.322-20.79c-6.277-6.277-13.496-10.748-20.79-13.322     c-7.294-2.573-14.513-7.044-20.79-13.322c-6.277-6.277-10.748-13.496-13.322-20.79c-2.574-7.294-7.045-14.513-13.322-20.79     c-6.277-6.277-13.496-10.748-20.79-13.322c-7.294-2.573-14.513-7.045-20.79-13.322s-10.748-13.496-13.322-20.79     c-2.574-7.294-7.045-14.513-13.322-20.79c-6.277-6.277-13.496-10.748-20.79-13.322c-7.294-2.573-14.513-7.045-20.79-13.322     c-6.277-6.277-10.748-13.496-13.322-20.79c-2.574-7.294-7.045-14.513-13.322-20.79s-13.496-10.748-20.79-13.322l23.852-23.852     c7.294,2.573,14.513,7.045,20.79,13.322s10.748,13.496,13.322,20.79s7.045,14.513,13.322,20.79     c6.277,6.277,13.496,10.748,20.79,13.322c7.294,2.573,14.513,7.045,20.79,13.322c6.277,6.277,10.748,13.496,13.322,20.79     s7.045,14.513,13.322,20.79c6.277,6.277,13.496,10.748,20.79,13.322s14.513,7.045,20.79,13.322     c6.277,6.277,10.748,13.496,13.322,20.79c2.574,7.294,7.045,14.513,13.322,20.79c6.277,6.277,13.496,10.748,20.79,13.322     c7.294,2.573,14.513,7.045,20.79,13.322c6.277,6.277,10.748,13.496,13.322,20.79c2.574,7.294,7.045,14.513,13.322,20.79     c6.277,6.277,13.496,10.748,20.79,13.322L315.025,473.673z"/>
			<path id="XMLID_1030_" style="fill:#FB4239;" d="M348.693,426.052c-3.87-2.464-7.64-5.469-11.163-8.991     c-6.281-6.281-10.909-13.336-13.768-20.351c-2.852-7.007-7.487-14.07-13.761-20.344c-6.281-6.281-13.336-10.909-20.35-13.768     c-7.007-2.852-14.07-7.487-20.344-13.761c-6.281-6.281-10.909-13.336-13.768-20.35c-2.859-7.014-7.487-14.07-13.761-20.344     c-6.281-6.281-13.336-10.909-20.351-13.768c-7.014-2.859-14.07-7.487-20.344-13.761c-6.281-6.281-10.909-13.336-13.768-20.35     c-2.859-7.014-7.487-14.07-13.761-20.344c-6.281-6.281-13.336-10.909-20.35-13.768c-7.014-2.859-14.07-7.487-20.344-13.761     c-6.281-6.281-10.909-13.336-13.768-20.351c-2.859-7.014-7.487-14.07-13.761-20.344c-4.584-4.584-9.581-8.288-14.674-11.067     c-3.202-1.747-7.165-1.213-9.744,1.366l-16.352,16.352c7.013,2.855,14.068,7.489,20.345,13.767     c6.277,6.277,10.912,13.332,13.766,20.345c2.855,7.013,7.489,14.068,13.766,20.345c6.277,6.277,13.333,10.912,20.345,13.766     c7.013,2.855,14.068,7.489,20.345,13.766c6.277,6.277,10.912,13.332,13.766,20.345c2.855,7.013,7.489,14.068,13.766,20.345     c6.277,6.277,13.333,10.912,20.345,13.766c7.013,2.855,14.068,7.489,20.345,13.766c6.277,6.277,10.912,13.332,13.766,20.345     c2.855,7.013,7.489,14.068,13.766,20.345c6.277,6.277,13.333,10.912,20.345,13.766c7.013,2.855,14.068,7.489,20.345,13.766     c6.277,6.277,10.912,13.332,13.767,20.345c2.855,7.013,7.489,14.068,13.766,20.345c6.277,6.277,13.332,10.911,20.344,13.766     l12.574-12.574C353.703,434.994,353.076,428.842,348.693,426.052z"/>
		</g>
		<g id="XMLID_1026_">
			<path id="XMLID_1028_" style="fill:#E21717;" d="M296.1,458.486c-6.277-6.277-10.912-13.332-13.766-20.345     c-2.855-7.013-7.489-14.068-13.766-20.345c-6.277-6.277-13.333-10.912-20.345-13.766c-7.013-2.855-14.068-7.489-20.345-13.766     c-6.277-6.277-10.912-13.332-13.766-20.345c-2.855-7.013-7.489-14.068-13.766-20.345c-6.277-6.277-13.333-10.912-20.345-13.766     c-7.013-2.855-14.068-7.489-20.345-13.766s-10.912-13.332-13.766-20.345c-2.855-7.013-7.489-14.068-13.766-20.345     c-6.277-6.277-13.333-10.912-20.345-13.766c-7.013-2.855-14.068-7.489-20.345-13.766s-10.912-13.332-13.766-20.345     c-2.855-7.013-7.489-14.068-13.766-20.345c-6.277-6.277-13.333-10.912-20.345-13.766L32.39,210.518l-21.029,21.029l5.67,2.311     c5.485,2.235,10.854,5.89,15.551,10.587c4.69,4.69,8.344,10.059,10.58,15.544c3.682,9.03,9.544,17.731,16.95,25.136     c7.412,7.412,16.113,13.274,25.15,16.963c5.478,2.228,10.847,5.883,15.544,10.58c4.69,4.69,8.344,10.059,10.58,15.544     c3.682,9.03,9.544,17.731,16.956,25.143c7.412,7.412,16.106,13.268,25.143,16.956c5.478,2.228,10.847,5.883,15.544,10.58     c4.69,4.69,8.344,10.059,10.58,15.544c3.682,9.03,9.544,17.731,16.956,25.143c7.412,7.412,16.106,13.268,25.143,16.956     c5.478,2.228,10.847,5.883,15.544,10.58c4.69,4.69,8.351,10.066,10.58,15.544c3.682,9.03,9.545,17.731,16.956,25.143     c5.904,5.904,12.616,10.82,19.672,14.433l21.029-21.029l10.955-10.955C309.432,469.397,302.377,464.763,296.1,458.486z"/>
			<path id="XMLID_1027_" style="fill:#E21717;" d="M84.907,192.114c6.277,6.277,10.912,13.332,13.766,20.345     c2.855,7.013,7.489,14.068,13.766,20.345c6.277,6.277,13.333,10.912,20.345,13.766c7.013,2.855,14.068,7.489,20.345,13.766     c6.277,6.277,10.912,13.332,13.766,20.345c2.855,7.013,7.489,14.068,13.766,20.345c6.277,6.277,13.333,10.912,20.345,13.766     c7.013,2.855,14.068,7.489,20.345,13.766c6.277,6.277,10.912,13.332,13.766,20.345c2.855,7.013,7.489,14.068,13.766,20.345     c6.277,6.277,13.333,10.912,20.345,13.766c7.013,2.855,14.068,7.489,20.345,13.766c6.277,6.277,10.912,13.332,13.767,20.345     c2.855,7.013,7.489,14.068,13.766,20.345c6.277,6.277,13.332,10.911,20.344,13.766l11.156-11.156l-5.67-2.311     c-5.478-2.228-10.854-5.89-15.544-10.58c-4.697-4.697-8.352-10.066-10.58-15.544c-3.682-9.044-9.538-17.738-16.95-25.15     c-7.412-7.412-16.113-13.274-25.15-16.95c-5.478-2.228-10.854-5.89-15.544-10.58c-4.697-4.697-8.351-10.066-10.58-15.544     c-3.682-9.044-9.538-17.738-16.95-25.15s-16.113-13.274-25.15-16.95c-5.485-2.235-10.854-5.89-15.544-10.58     c-4.697-4.697-8.351-10.066-10.58-15.544c-3.682-9.044-9.538-17.738-16.95-25.15c-7.412-7.412-16.113-13.274-25.15-16.95     c-5.485-2.235-10.854-5.89-15.551-10.587c-4.69-4.69-8.344-10.059-10.58-15.544c-3.675-9.037-9.538-17.738-16.943-25.143     c-5.904-5.904-12.623-10.827-19.679-14.44l-10.957,10.957C71.574,181.202,78.63,185.837,84.907,192.114z"/>
		</g>
		<path id="XMLID_1021_" style="fill:#FF8859;" d="M295.416,493.282c-7.013-2.855-14.068-7.489-20.345-13.766    c-6.277-6.277-10.912-13.332-13.766-20.345c-2.855-7.013-7.489-14.068-13.766-20.345c-6.277-6.277-13.333-10.912-20.345-13.766    c-7.013-2.855-14.068-7.489-20.345-13.766c-6.277-6.277-10.912-13.332-13.766-20.345c-2.855-7.013-7.489-14.068-13.766-20.345    c-6.277-6.277-13.333-10.912-20.345-13.766s-14.068-7.489-20.345-13.766c-6.277-6.277-10.912-13.332-13.766-20.345    c-2.855-7.013-7.489-14.068-13.766-20.345c-6.277-6.277-13.333-10.912-20.345-13.766c-7.013-2.855-14.068-7.489-20.345-13.766    c-6.277-6.277-10.912-13.332-13.766-20.345c-2.855-7.013-7.489-14.068-13.766-20.345s-13.333-10.912-20.345-13.766l21.01-21.01    c7.013,2.855,14.068,7.489,20.345,13.766s10.912,13.332,13.766,20.345c2.855,7.013,7.489,14.068,13.766,20.345    c6.277,6.277,13.333,10.912,20.345,13.766c7.013,2.855,14.068,7.489,20.345,13.766c6.277,6.277,10.912,13.332,13.766,20.345    c2.855,7.013,7.489,14.068,13.766,20.345c6.277,6.277,13.333,10.912,20.345,13.766c7.013,2.855,14.068,7.489,20.345,13.766    c6.277,6.277,10.912,13.332,13.766,20.345c2.855,7.013,7.489,14.068,13.766,20.345c6.277,6.277,13.333,10.912,20.345,13.766    c7.013,2.855,14.068,7.489,20.345,13.766c6.277,6.277,10.912,13.332,13.766,20.345c2.855,7.013,7.489,14.068,13.766,20.345    c6.277,6.277,13.333,10.912,20.345,13.766L295.416,493.282z"/>
	</g>
</g>















</svg>
