<svg height="512pt" viewBox="0 -3 512 512" width="512pt" xmlns="http://www.w3.org/2000/svg"><path d="m109.6875 18.375v12.785156c0 6 4.863281 10.863282 10.863281 10.863282h15.421875c5.371094 0 9.722656 4.351562 9.722656 9.722656v48.097656h34.558594v-74.171875c0-9.894531-8-17.925781-17.894531-17.960937l-41.757813-.195313c-6.019531-.027344-10.914062 4.84375-10.914062 10.859375zm0 0" fill="#fdd79b"/><path d="m180.25 25.675781v74.164063h-15.703125v-74.164063c0-9.902343-7.996094-17.929687-17.890625-17.96875h15.703125c9.894531.039063 17.890625 8.066407 17.890625 17.96875zm0 0" fill="#fccd7f"/><path d="m258.34375 99.84375h-197.214844c-6.328125 0-12.175781 3.605469-15.332031 9.449219l-19.347656 35.867187h266.570312l-19.347656-35.867187c-3.152344-5.84375-9-9.449219-15.328125-9.449219zm0 0" fill="#fef1da"/><path d="m293.019531 145.160156h-266.574219l7.566407-14.027344h219.351562c3.765625 0 6.160157-4.019531 4.375-7.328124l-12.921875-23.957032h13.527344c6.324219 0 12.175781 3.597656 15.332031 9.449219zm0 0" fill="#fde6bf"/><path d="m299.605469 198.027344h-279.738281c-6.820313 0-12.351563-5.53125-12.351563-12.351563v-28.164062c0-6.824219 5.53125-12.351563 12.351563-12.351563h279.734374c6.824219 0 12.351563 5.527344 12.351563 12.351563v28.164062c0 6.820313-5.527344 12.351563-12.347656 12.351563zm0 0" fill="#fdd79b"/><path d="m292.359375 197.652344-10.664063 247.019531c-.597656 14.199219-12.183593 25.433594-26.351562 25.664063-.152344.011718-.304688.011718-.453125.011718h-192.984375c-14.371094 0-26.195312-11.324218-26.808594-25.675781l-10.660156-247.019531zm0 0" fill="#ea4444"/><path d="m292.355469 197.652344-10.660157 247.019531c-.59375 14.019531-11.886718 25.144531-25.804687 25.644531.460937-1.792968.75-3.667968.832031-5.601562l10.410156-241.164063c.136719-3.191406-2.414062-5.855469-5.609374-5.855469h-236.226563l-.863281-20.042968zm0 0" fill="#d93131"/><path d="m228.273438 498.296875h-139.753907c-4.484375 0-8.628906-2.222656-10.863281-5.828125l-13.710938-22.125h188.90625l-13.714843 22.125c-2.234375 3.605469-6.378907 5.828125-10.863281 5.828125zm0 0" fill="#fdd79b"/><path d="m28.839844 299.640625s125.214844 16.746094 261.40625-53.039063l-5.285156 122.488282s-114.035157 48.675781-252.046876 24.996094zm0 0" fill="#fef1da"/><path d="m498.308594 325.078125c-12.273438-32.921875-38.242188-52.417969-63.914063-63.949219-43.109375-19.367187-92.742187-19.367187-135.851562 0-25.671875 11.53125-51.636719 31.027344-63.910157 63.949219-3.21875 8.632813-4.6875 17.816406-4.679687 27.027344.003906 5.449219 4.46875 9.84375 9.917969 9.84375h253.199218c5.445313 0 9.914063-4.394531 9.917969-9.84375.007813-9.210938-1.464843-18.394531-4.679687-27.027344zm0 0" fill="#ffc265"/><path d="m502.988281 352.105469c-.007812 5.441406-4.46875 9.84375-9.921875 9.84375h-253.199218c-5.441407 0-9.914063-4.398438-9.914063-9.84375 0-3.15625.171875-6.300781.523437-9.429688.890626.300781 1.832032.453125 2.816407.453125h233.277343c5.023438 0 9.128907-4.050781 9.140626-9.070312 0-8.488282-1.351563-16.945313-4.320313-24.902344-8.777344-23.539062-25.152344-39.632812-43.101563-50.625 2.046876.820312 4.082032 1.683594 6.105469 2.59375 25.671875 11.535156 51.636719 31.035156 63.914063 63.953125 3.21875 8.632813 4.691406 17.820313 4.679687 27.027344zm0 0" fill="#ffb541"/><path d="m481.027344 432.480469h-229.117188c-12.953125 0-23.457031-10.5-23.457031-23.457031v-23.617188c0-12.953125 10.503906-23.457031 23.457031-23.457031h229.117188c12.957031 0 23.457031 10.503906 23.457031 23.457031v23.617188c0 12.957031-10.503906 23.457031-23.457031 23.457031zm0 0" fill="#945b44"/><path d="m481.027344 432.480469h-229.117188c-12.953125 0-23.457031-10.5-23.457031-23.457031v-23.617188c0-12.953125 10.503906-23.457031 23.457031-23.457031h229.117188c12.957031 0 23.457031 10.503906 23.457031 23.457031v23.617188c0 12.957031-10.503906 23.457031-23.457031 23.457031zm0 0" fill="#945b44"/><path d="m464.59375 498.269531h-196.25c-21.726562 0-39.34375-17.613281-39.34375-39.34375v-13.558593c0-7.117188 5.769531-12.886719 12.890625-12.886719h249.160156c7.117188 0 12.886719 5.769531 12.886719 12.886719v13.558593c0 21.730469-17.617188 39.34375-39.34375 39.34375zm0 0" fill="#ffc265"/><path d="m503.941406 445.371094v13.550781c0 21.734375-17.617187 39.351563-39.351562 39.351563h-196.242188c-16.386718 0-30.425781-10.019532-36.335937-24.261719 5.628906 3.109375 12.09375 4.882812 18.976562 4.882812h196.242188c21.738281 0 39.34375-17.617187 39.34375-39.34375v-7.074219h4.480469c7.113281 0 12.886718 5.769532 12.886718 12.894532zm0 0" fill="#ffb541"/><path d="m262.824219 361.949219 55.742187 37.671875c7.402344 5.003906 17.160156 4.789062 24.332032-.539063l50.023437-37.132812zm0 0" fill="#fbc700"/><path d="m512 385.40625c0-7.714844-2.84375-14.773438-7.527344-20.203125 3.679688-3.183594 6.023438-7.867187 6.03125-13.09375.007813-10.480469-1.726562-20.457031-5.15625-29.65625-11.199218-30.039063-34.035156-52.980469-67.875-68.183594-44.457031-19.972656-95.351562-20.253906-140-.871093l2.066406-47.855469h.0625c10.957032 0 19.867188-8.914063 19.867188-19.867188v-28.164062c0-10.953125-8.910156-19.867188-19.867188-19.867188h-2.09375l-17.222656-31.917969c-4.457031-8.261718-12.867187-13.398437-21.945312-13.398437h-22.382813c-4.152343 0-7.515625 3.367187-7.515625 7.519531 0 4.148438 3.363282 7.515625 7.515625 7.515625h22.382813c3.546875 0 6.886718 2.105469 8.71875 5.5l13.367187 24.78125h-241.382812l13.371093-24.78125c1.832032-3.394531 5.171876-5.5 8.714844-5.5h140.382813c4.148437 0 7.515625-3.367187 7.515625-7.515625 0-4.152344-3.367188-7.519531-7.515625-7.519531h-13.742188v-66.65625c0-13.996094-11.386719-25.425781-25.378906-25.476563l-41.753906-.195312c-.03125 0-.0625 0-.089844 0-4.894531 0-9.492187 1.898438-12.960937 5.351562-3.492188 3.476563-5.414063 8.101563-5.414063 13.027344v12.78125c0 10.136719 8.242187 18.378906 18.375 18.378906h15.421875c1.21875 0 2.210938.992188 2.210938 2.210938v40.578125h-77.050782c-9.078125 0-17.488281 5.136719-21.945312 13.398437l-17.21875 31.917969h-2.097656c-10.957032 0-19.867188 8.914063-19.867188 19.867188v28.164062c0 10.0625 7.527344 18.382813 17.246094 19.671875l10.339844 239.644532c.765624 17.695312 14.691406 31.699218 32.125 32.789062l11.558593 18.644531c3.585938 5.789063 10.195313 9.386719 17.25 9.386719h139.753907c6.027343 0 11.726562-2.632812 15.496093-7.011719 7.148438 4.425781 15.570313 6.984375 24.578125 6.984375h196.246094c25.839844 0 46.859375-21.023437 46.859375-46.859375v-13.558593c0-6.300782-2.871094-11.9375-7.375-15.683594 4.921875-5.484375 7.921875-12.726563 7.921875-20.660156zm-376.03125-350.898438h-15.417969c-1.847656 0-3.347656-1.503906-3.347656-3.347656v-12.78125c0-1.210937.617187-2.007812.984375-2.371094.367188-.367187 1.160156-.976562 2.359375-.976562h.019531l41.761719.195312c5.742187.023438 10.410156 4.707032 10.410156 10.445313v66.65625h-19.527343v-40.582031c0-9.503906-7.734376-17.238282-17.242188-17.238282zm165.65625 233.476563c20.605469-9.257813 42.722656-13.886719 64.84375-13.886719s44.242188 4.628906 64.84375 13.886719c30.039062 13.492187 50.207031 33.585937 59.953125 59.71875 2.796875 7.511719 4.210937 15.71875 4.207031 24.398437-.003906 1.285157-1.082031 2.335938-2.40625 2.335938h-253.195312c-1.324219 0-2.402344-1.050781-2.402344-2.335938-.007812-8.679687 1.40625-16.886718 4.207031-24.394531 9.742188-26.136719 29.910157-46.230469 59.949219-59.722656zm-286.59375-82.308594v-28.164062c0-2.667969 2.167969-4.835938 4.835938-4.835938h279.738281c2.667969 0 4.835937 2.167969 4.835937 4.835938v28.164062c0 2.667969-2.167968 4.835938-4.835937 4.835938h-4.925781c-.742188-.242188-1.523438-.371094-2.320313-.371094h-267.921875c-.796875 0-1.578125.128906-2.320312.371094h-2.25c-2.667969 0-4.835938-2.171875-4.835938-4.835938zm17.269531 19.867188h252.191407l-1.566407 36.324219c-67.683593 33.894531-132.160156 45.859374-174.664062 49.894531-34.816407 3.300781-60.867188 1.972656-72.195313 1.042969zm5.859375 135.820312-1.441406-33.410156c12.71875.972656 38.351562 2.019531 72.453125-1.179687 42.34375-3.976563 105.8125-15.554688 173.015625-47.789063l-.085938 2.023437c-26.546874 14.933594-44.859374 35.550782-54.511718 61.445313-3.429688 9.199219-5.164063 19.175781-5.152344 29.65625.003906 5.226563 2.347656 9.910156 6.03125 13.09375-3.652344 4.230469-6.179688 9.457031-7.117188 15.207031-44.523437 10.082032-109.523437 18.5-181.191406 7.25zm23.742188 121.464844c-10.375 0-18.851563-8.121094-19.296875-18.484375l-1.785157-41.378906c24.207032 3.628906 47.574219 5.082031 69.457032 5.082031 40.304687 0 75.597656-4.917969 101.898437-10.210937 3-.605469 5.914063-1.222657 8.761719-1.847657v13.035157c0 7.933593 3 15.175781 7.921875 20.660156-4.5 3.746094-7.371094 9.382812-7.371094 15.683594v13.558593c0 1.3125.066407 2.613281.171875 3.898438h-159.757812zm166.371094 27.953125h-139.753907c-1.863281 0-3.621093-.894531-4.472656-2.273438l-6.601563-10.648437h148.050782c1.789062 4.03125 4.132812 7.761719 6.925781 11.097656-.933594 1.121094-2.496094 1.824219-4.148437 1.824219zm268.148437-31.855469c0 17.550781-14.277344 31.828125-31.828125 31.828125h-196.25c-17.546875 0-31.828125-14.277344-31.828125-31.828125v-13.558593c0-2.960938 2.410156-5.371094 5.375-5.371094h249.15625c2.964844 0 5.375 2.410156 5.375 5.371094zm.546875-49.902343c0 8.789062-7.152344 15.941406-15.941406 15.941406h-229.117188c-8.789062 0-15.941406-7.152344-15.941406-15.941406v-23.617188c0-8.789062 7.152344-15.9375 15.941406-15.9375h8.613282l53.832031 36.378906c4.832031 3.265625 10.417969 4.890625 15.996093 4.890625 5.996094 0 11.992188-1.882812 17.027344-5.621093 3.335938-2.472657 4.03125-7.183594 1.554688-10.515626-2.472656-3.332031-7.179688-4.027343-10.511719-1.554687-4.605469 3.417969-10.894531 3.558594-15.648437.347656l-35.40625-23.929687h82.824218l-3.976562 2.953125c-3.335938 2.472656-4.03125 7.179687-1.558594 10.515625 2.476562 3.332031 7.183594 4.027344 10.515625 1.554687l20.238281-15.023437h85.617188c8.792968 0 15.941406 7.152344 15.941406 15.941406zm0 0"/></svg>