<svg id="Capa_1" enable-background="new 0 0 510 510" height="512" viewBox="0 0 510 510" width="512" xmlns="http://www.w3.org/2000/svg" xmlns:xlink="http://www.w3.org/1999/xlink"><linearGradient id="lg1"><stop offset="0" stop-color="#ff6359"/><stop offset=".2243" stop-color="#fe5b50"/><stop offset=".5952" stop-color="#fc4637"/><stop offset="1" stop-color="#f82814"/></linearGradient><linearGradient id="SVGID_1_" gradientTransform="matrix(.927 .376 -.376 .927 93.459 -65.129)" gradientUnits="userSpaceOnUse" x1="266.476" x2="289.086" xlink:href="#lg1" y1="50.624" y2="85.954"/><linearGradient id="lg2"><stop offset="0" stop-color="#ffd945"/><stop offset=".3043" stop-color="#ffcd3e"/><stop offset=".8558" stop-color="#ffad2b"/><stop offset="1" stop-color="#ffa325"/></linearGradient><linearGradient id="SVGID_2_" gradientUnits="userSpaceOnUse" x1="187.939" x2="202.939" xlink:href="#lg2" y1="202.389" y2="369.389"/><linearGradient id="lg3"><stop offset="0" stop-color="#f82814" stop-opacity="0"/><stop offset=".2454" stop-color="#f12817" stop-opacity=".245"/><stop offset=".6052" stop-color="#dd2820" stop-opacity=".605"/><stop offset="1" stop-color="#c0272d"/></linearGradient><linearGradient id="SVGID_3_" gradientTransform="matrix(.927 .376 -.376 .927 93.459 -65.129)" gradientUnits="userSpaceOnUse" x1="214.558" x2="543.739" xlink:href="#lg3" y1="224.378" y2="339.546"/><linearGradient id="SVGID_4_" gradientTransform="matrix(-.905 -.426 .426 -.905 1832.427 -618.427)" gradientUnits="userSpaceOnUse" x1="1210.133" x2="1231.299" xlink:href="#lg3" y1="-1514.891" y2="-1485.547"/><linearGradient id="SVGID_5_" gradientTransform="matrix(-.905 -.426 .426 -.905 1832.427 -618.427)" gradientUnits="userSpaceOnUse" x1="1224.649" x2="1241.359" xlink:href="#lg3" y1="-1533.423" y2="-1510.257"/><linearGradient id="SVGID_6_" gradientTransform="matrix(-.905 -.426 .426 -.905 1832.427 -618.427)" gradientUnits="userSpaceOnUse" x1="1200.24" x2="1210.314" xlink:href="#lg3" y1="-1534.071" y2="-1520.105"/><linearGradient id="SVGID_7_" gradientTransform="matrix(-.285 -.959 .959 -.285 1741.671 107.622)" gradientUnits="userSpaceOnUse" x1="324.583" x2="340.223" xlink:href="#lg3" y1="-1595.631" y2="-1573.948"/><linearGradient id="SVGID_8_" gradientTransform="matrix(-.285 -.959 .959 -.285 1741.671 107.622)" gradientUnits="userSpaceOnUse" x1="335.309" x2="347.656" xlink:href="#lg3" y1="-1609.325" y2="-1592.207"/><linearGradient id="SVGID_9_" gradientTransform="matrix(-.285 -.959 .959 -.285 1741.671 107.622)" gradientUnits="userSpaceOnUse" x1="317.272" x2="324.716" xlink:href="#lg3" y1="-1609.804" y2="-1599.484"/><linearGradient id="SVGID_10_" gradientTransform="matrix(-.285 -.959 .959 -.285 1741.671 107.622)" gradientUnits="userSpaceOnUse" x1="335.748" x2="354.841" xlink:href="#lg3" y1="-1377.295" y2="-1350.825"/><linearGradient id="SVGID_11_" gradientTransform="matrix(-.285 -.959 .959 -.285 1741.671 107.622)" gradientUnits="userSpaceOnUse" x1="348.842" x2="363.915" xlink:href="#lg3" y1="-1394.012" y2="-1373.115"/><linearGradient id="SVGID_12_" gradientTransform="matrix(-.285 -.959 .959 -.285 1741.671 107.622)" gradientUnits="userSpaceOnUse" x1="326.824" x2="335.911" xlink:href="#lg3" y1="-1394.596" y2="-1381.998"/><linearGradient id="SVGID_13_" gradientTransform="matrix(-.435 2.035 -.978 -.209 1022.499 -1031.248)" gradientUnits="userSpaceOnUse" x1="550.876" x2="565.956" xlink:href="#lg1" y1="467.257" y2="458.999"/><linearGradient id="SVGID_14_" gradientTransform="matrix(-.435 2.035 -.978 -.209 1022.499 -1031.248)" gradientUnits="userSpaceOnUse" x1="557.451" x2="596.945" xlink:href="#lg1" y1="438.201" y2="438.56"/><linearGradient id="SVGID_15_" gradientTransform="matrix(.96 .282 -.282 .96 74.001 -55.057)" gradientUnits="userSpaceOnUse" x1="323.3" x2="345.911" xlink:href="#lg1" y1="137.909" y2="173.239"/><linearGradient id="SVGID_16_" gradientUnits="userSpaceOnUse" x1="221.227" x2="242.227" xlink:href="#lg2" y1="273.538" y2="426.538"/><linearGradient id="SVGID_17_" gradientUnits="userSpaceOnUse" x1="265.644" x2="577.628" xlink:href="#lg3" y1="324.097" y2="432.091"/><linearGradient id="SVGID_18_" gradientTransform="matrix(-.943 -.334 .334 -.943 1749.192 -778.855)" gradientUnits="userSpaceOnUse" x1="1148.587" x2="1169.753" xlink:href="#lg3" y1="-1598.914" y2="-1569.57"/><linearGradient id="SVGID_19_" gradientTransform="matrix(-.943 -.334 .334 -.943 1749.192 -778.855)" gradientUnits="userSpaceOnUse" x1="1163.103" x2="1179.813" xlink:href="#lg3" y1="-1617.445" y2="-1594.28"/><linearGradient id="SVGID_20_" gradientTransform="matrix(-.943 -.334 .334 -.943 1749.192 -778.855)" gradientUnits="userSpaceOnUse" x1="1138.694" x2="1148.768" xlink:href="#lg3" y1="-1618.094" y2="-1604.127"/><linearGradient id="SVGID_21_" gradientTransform="matrix(-.379 -.925 .925 -.379 1731.224 -47.377)" gradientUnits="userSpaceOnUse" x1="220.926" x2="236.567" xlink:href="#lg3" y1="-1605.781" y2="-1584.098"/><linearGradient id="SVGID_22_" gradientTransform="matrix(-.379 -.925 .925 -.379 1731.224 -47.377)" gradientUnits="userSpaceOnUse" x1="231.653" x2="244" xlink:href="#lg3" y1="-1619.475" y2="-1602.357"/><linearGradient id="SVGID_23_" gradientTransform="matrix(-.379 -.925 .925 -.379 1731.224 -47.377)" gradientUnits="userSpaceOnUse" x1="213.616" x2="221.06" xlink:href="#lg3" y1="-1619.954" y2="-1609.634"/><linearGradient id="SVGID_24_" gradientTransform="matrix(-.379 -.925 .925 -.379 1731.224 -47.377)" gradientUnits="userSpaceOnUse" x1="232.092" x2="251.185" xlink:href="#lg3" y1="-1387.445" y2="-1360.976"/><linearGradient id="SVGID_25_" gradientTransform="matrix(-.379 -.925 .925 -.379 1731.224 -47.377)" gradientUnits="userSpaceOnUse" x1="245.186" x2="260.259" xlink:href="#lg3" y1="-1404.162" y2="-1383.265"/><linearGradient id="SVGID_26_" gradientTransform="matrix(-.379 -.925 .925 -.379 1731.224 -47.377)" gradientUnits="userSpaceOnUse" x1="223.168" x2="232.255" xlink:href="#lg3" y1="-1404.747" y2="-1392.148"/><linearGradient id="SVGID_27_" gradientTransform="matrix(-.23 2.068 -.994 -.11 902.165 -1108.929)" gradientUnits="userSpaceOnUse" x1="596.932" x2="612.012" xlink:href="#lg1" y1="426.501" y2="418.243"/><linearGradient id="SVGID_28_" gradientTransform="matrix(-.23 2.068 -.994 -.11 902.165 -1108.929)" gradientUnits="userSpaceOnUse" x1="603.507" x2="643.001" xlink:href="#lg1" y1="397.445" y2="397.804"/><linearGradient id="SVGID_29_" gradientTransform="matrix(.96 .282 -.282 .96 74.001 -55.057)" gradientUnits="userSpaceOnUse" x1="416.9" x2="439.511" xlink:href="#lg1" y1="174.631" y2="209.96"/><linearGradient id="SVGID_30_" gradientTransform="matrix(.96 .282 -.282 .96 74.001 -55.057)" gradientUnits="userSpaceOnUse" x1="303.464" x2="451.278" xlink:href="#lg2" y1="297.107" y2="458.524"/><linearGradient id="SVGID_31_" gradientTransform="matrix(.96 .282 -.282 .96 74.001 -55.057)" gradientUnits="userSpaceOnUse" x1="364.052" x2="693.233" xlink:href="#lg3" y1="348.059" y2="463.227"/><linearGradient id="SVGID_32_" gradientTransform="matrix(-.943 -.334 .334 -.943 1749.192 -778.855)" gradientUnits="userSpaceOnUse" x1="1053.106" x2="1074.272" xlink:href="#lg3" y1="-1630.424" y2="-1601.08"/><linearGradient id="SVGID_33_" gradientTransform="matrix(-.943 -.334 .334 -.943 1749.192 -778.855)" gradientUnits="userSpaceOnUse" x1="1067.622" x2="1084.332" xlink:href="#lg3" y1="-1648.955" y2="-1625.79"/><linearGradient id="SVGID_34_" gradientTransform="matrix(-.943 -.334 .334 -.943 1749.192 -778.855)" gradientUnits="userSpaceOnUse" x1="1043.213" x2="1053.287" xlink:href="#lg3" y1="-1649.604" y2="-1635.637"/><linearGradient id="SVGID_35_" gradientTransform="matrix(-.379 -.925 .925 -.379 1731.224 -47.377)" gradientUnits="userSpaceOnUse" x1="133.782" x2="149.422" xlink:href="#lg3" y1="-1555.629" y2="-1533.945"/><linearGradient id="SVGID_36_" gradientTransform="matrix(-.379 -.925 .925 -.379 1731.224 -47.377)" gradientUnits="userSpaceOnUse" x1="144.508" x2="156.855" xlink:href="#lg3" y1="-1569.322" y2="-1552.205"/><linearGradient id="SVGID_37_" gradientTransform="matrix(-.379 -.925 .925 -.379 1731.224 -47.377)" gradientUnits="userSpaceOnUse" x1="126.471" x2="133.915" xlink:href="#lg3" y1="-1569.802" y2="-1559.481"/><linearGradient id="SVGID_38_" gradientTransform="matrix(-.379 -.925 .925 -.379 1731.224 -47.377)" gradientUnits="userSpaceOnUse" x1="144.947" x2="164.04" xlink:href="#lg3" y1="-1337.293" y2="-1310.823"/><linearGradient id="SVGID_39_" gradientTransform="matrix(-.379 -.925 .925 -.379 1731.224 -47.377)" gradientUnits="userSpaceOnUse" x1="158.041" x2="173.114" xlink:href="#lg3" y1="-1354.009" y2="-1333.113"/><linearGradient id="SVGID_40_" gradientTransform="matrix(-.379 -.925 .925 -.379 1731.224 -47.377)" gradientUnits="userSpaceOnUse" x1="136.023" x2="145.11" xlink:href="#lg3" y1="-1354.594" y2="-1341.996"/><linearGradient id="SVGID_41_" gradientTransform="matrix(-.23 2.068 -.994 -.11 902.165 -1108.929)" gradientUnits="userSpaceOnUse" x1="622.14" x2="637.22" xlink:href="#lg1" y1="340.726" y2="332.468"/><linearGradient id="SVGID_42_" gradientTransform="matrix(-.23 2.068 -.994 -.11 902.165 -1108.929)" gradientUnits="userSpaceOnUse" x1="628.715" x2="668.21" xlink:href="#lg1" y1="311.67" y2="312.029"/><g><g><circle cx="326.316" cy="108.656" fill="url(#SVGID_1_)" r="26.269"/><g><path d="m130.204 340.294 5.725 2.815c7.45 3.662 16.165 3.72 23.663.156 4.055-1.928 8.733-2.064 12.893-.376l5.14 2.085c6.527 2.648 14.019.719 18.456-4.752 2.06-2.541 5.305-3.81 8.542-3.341l13.128 1.902c6 .869 11.959-1.818 15.28-6.89 3.372-5.151 9.46-7.835 15.537-6.851 8.784 1.422 17.385-3.416 20.73-11.662l2.14-5.275c1.137-2.804 3.57-4.877 6.518-5.556l4.666-1.075c10.441-2.406 18.58-10.582 20.94-21.034.694-3.074 2.9-5.586 5.858-6.671 9.367-3.436 15.794-12.113 16.352-22.074l.069-1.235c.131-2.337 1.14-4.539 2.825-6.164l3.473-3.349c8.024-7.738 12.536-18.419 12.488-29.566-.012-2.864 1.298-5.573 3.55-7.342 5.806-4.559 8.158-12.251 5.895-19.278l-.81-2.515c-.876-2.72-.451-5.692 1.153-8.057 5.974-8.809 6.948-20.086 2.573-29.789l-1.171-2.598c-1.034-2.292-1.093-4.906-.165-7.242 2.719-6.849-.185-14.645-6.723-18.045l-6.351-3.303c-2.262-1.176-3.941-3.231-4.642-5.683-2.114-7.389-10.187-11.293-17.291-8.363l-1.662.686c-2.478 1.022-5.277.923-7.677-.272l-6.937-3.453c-5.859-2.916-12.932.146-14.815 6.413-1.015 3.379-3.858 5.89-7.336 6.481l-1.095.186c-7.631 1.297-12.92 8.329-12.05 16.02.426 3.766-1.48 7.413-4.815 9.214-5.212 2.813-6.979 9.433-3.863 14.47l1.003 1.622c2.476 4.002 1.567 9.223-2.117 12.152-6.125 4.87-9.391 12.492-8.693 20.286l.001.006c.41 4.576-2.588 8.763-7.052 9.849-8.207 1.997-14.743 8.187-17.183 16.273l-.268.888c-1.201 3.981-4.903 6.678-9.06 6.601l-4.561-.085c-6.621-.123-12.95 2.719-17.258 7.748-2.597 3.032-6.842 4.064-10.541 2.563l-2.467-1.001c-8.826-3.581-18.587-4.147-27.768-1.61-4.012 1.109-8.271-.588-10.421-4.152l-1.599-2.65c-3.68-6.098-10.875-9.126-17.808-7.493-3.626.854-7.412-.543-9.615-3.547l-3.702-5.049c-4.165-5.68-11.911-7.364-18.058-3.924-2.46 1.376-5.412 1.561-8.024.501l-11.448-4.645c-4.799-1.947-10.263.409-12.142 5.234-1.308 3.36-4.445 5.659-8.043 5.895l-6.213.408c-8.48.557-14.949 7.805-14.543 16.293.148 3.086-1.249 6.043-3.726 7.888l-7.781 5.799c-4.967 3.702-5.835 10.803-1.905 15.592 2.528 3.08 2.809 7.43.697 10.809-3.909 6.256-2.28 14.474 3.72 18.766l1.151.823c2.767 1.98 4.23 5.315 3.812 8.691-.89 7.186 3.988 13.816 11.113 15.106l4.845.877c2.585.468 4.85 2.008 6.235 4.24l3.742 6.03c3.928 6.33 11.055 9.945 18.482 9.375 5.498-.422 10.925 1.45 14.994 5.172l1.566 1.432c7.314 6.689 17.455 9.342 27.108 7.092 4.488-1.044 9.2-.505 13.336 1.528z" fill="url(#SVGID_2_)"/><path d="m332.14 240.945c8.024-7.738 12.536-18.419 12.488-29.566-.012-2.864 1.298-5.573 3.55-7.342 5.806-4.559 8.158-12.251 5.895-19.278l-.81-2.515c-.876-2.72-.451-5.692 1.153-8.057 5.974-8.809 6.948-20.086 2.573-29.789l-1.171-2.598c-1.034-2.292-1.093-4.906-.165-7.242 2.719-6.849-.185-14.645-6.723-18.045l-6.351-3.303c-.596-.31-1.148-.684-1.656-1.107.381 6.623-1.381 13.299-5.218 18.957-1.604 2.365-2.029 5.337-1.153 8.057l.81 2.515c2.263 7.026-.089 14.719-5.895 19.278-2.252 1.769-3.563 4.478-3.55 7.342.048 11.147-4.464 21.828-12.488 29.566l-3.473 3.349c-1.685 1.625-2.694 3.826-2.825 6.164l-.069 1.235c-.558 9.962-6.985 18.638-16.352 22.074-2.958 1.085-5.164 3.597-5.858 6.671-2.36 10.452-10.499 18.627-20.94 21.034l-4.666 1.075c-2.948.679-5.38 2.753-6.518 5.556l-2.14 5.275c-3.345 8.246-11.946 13.084-20.73 11.662-6.077-.984-12.164 1.7-15.537 6.85-3.321 5.072-9.28 7.759-15.28 6.89l-13.128-1.902c-3.237-.469-6.482.8-8.542 3.341-4.436 5.472-11.928 7.401-18.456 4.752l-5.14-2.085c-4.16-1.688-8.838-1.551-12.893.376-7.497 3.564-16.213 3.507-23.663-.156l-5.725-2.815c-4.136-2.033-8.847-2.572-13.335-1.526-9.653 2.251-19.794-.403-27.108-7.092l-1.566-1.432c-4.069-3.721-9.496-5.593-14.994-5.172-7.428.57-14.554-3.046-18.482-9.375l-3.742-6.03c-1.385-2.232-3.65-3.773-6.235-4.24l-4.845-.877c-.37-.067-.73-.157-1.088-.252-3.902 6.255-2.273 14.467 3.724 18.758l1.15.823c2.767 1.98 4.23 5.315 3.812 8.691-.89 7.186 3.988 13.816 11.113 15.106l4.845.877c2.585.468 4.85 2.009 6.235 4.24l3.742 6.03c3.928 6.33 11.055 9.945 18.482 9.375 5.498-.422 10.925 1.45 14.994 5.172l1.566 1.432c7.314 6.689 17.455 9.342 27.108 7.092 4.488-1.046 9.2-.507 13.335 1.526l5.725 2.815c7.45 3.662 16.165 3.72 23.663.156 4.055-1.928 8.733-2.064 12.893-.376l5.14 2.085c6.527 2.648 14.019.719 18.456-4.752 2.06-2.541 5.305-3.81 8.542-3.341l13.128 1.902c6 .869 11.959-1.818 15.28-6.89 3.372-5.151 9.46-7.835 15.537-6.85 8.784 1.422 17.385-3.416 20.73-11.662l2.14-5.275c1.137-2.804 3.57-4.877 6.518-5.556l4.667-1.076c10.441-2.406 18.58-10.582 20.94-21.034.694-3.074 2.9-5.586 5.858-6.671 9.367-3.436 15.794-12.113 16.352-22.074l.069-1.235c.131-2.337 1.14-4.539 2.825-6.164z" fill="url(#SVGID_3_)"/><g opacity=".6"><g><circle cx="89.71" cy="224.351" fill="url(#SVGID_4_)" r="7.644"/><circle cx="69.127" cy="237.332" fill="url(#SVGID_5_)" r="6.035"/><circle cx="91.598" cy="251.913" fill="url(#SVGID_6_)" r="3.638"/></g><g><circle cx="124.997" cy="244.884" fill="url(#SVGID_7_)" r="5.648"/><circle cx="107.708" cy="239.944" fill="url(#SVGID_8_)" r="4.459"/><circle cx="110.748" cy="259.503" fill="url(#SVGID_9_)" r="2.688"/></g><g><circle cx="332.235" cy="170.397" fill="url(#SVGID_10_)" r="6.895"/><circle cx="311.129" cy="164.366" fill="url(#SVGID_11_)" r="5.444"/><circle cx="314.84" cy="188.243" fill="url(#SVGID_12_)" r="3.282"/></g></g></g><g><path d="m302.197 24.535c3.481-16.298 17.805-27.054 31.995-24.024s22.872 18.699 19.391 34.998c-3.481 16.298-17.805 27.054-31.995 24.024s-22.871-18.7-19.391-34.998z" fill="url(#SVGID_13_)"/><path d="m302.197 24.535c9.211 20.119 26.801 20.65 42.723 1.29 18.805-22.867 33.433-25.936 42.535-23.992 28.238 6.03-17.153 99.169-50.121 92.129s-42.121-36.72-35.137-69.427z" fill="url(#SVGID_14_)"/></g></g><g><circle cx="352.942" cy="194.423" fill="url(#SVGID_15_)" r="26.269"/><g><path d="m180.883 444.448 5.977 2.23c7.778 2.902 16.455 2.091 23.56-2.203 3.843-2.322 8.484-2.924 12.792-1.659l5.322 1.563c6.759 1.985 14.021-.681 17.89-6.568 1.797-2.733 4.899-4.319 8.167-4.175l13.252.584c6.056.267 11.718-3.001 14.517-8.378 2.842-5.461 8.632-8.738 14.777-8.364 8.882.54 16.958-5.131 19.465-13.669l1.604-5.462c.852-2.903 3.066-5.208 5.932-6.178l4.536-1.535c10.149-3.435 17.434-12.38 18.741-23.015.384-3.128 2.329-5.847 5.165-7.222 8.978-4.352 14.509-13.626 14.072-23.594l-.054-1.236c-.103-2.339.682-4.63 2.197-6.414l3.122-3.679c7.213-8.498 10.638-19.576 9.48-30.663-.297-2.848.736-5.675 2.801-7.659 5.323-5.115 6.897-13.003 3.945-19.769l-1.056-2.422c-1.143-2.619-1.016-5.619.345-8.132 5.066-9.36 4.912-20.679-.408-29.897l-1.424-2.468c-1.257-2.178-1.577-4.772-.886-7.19 2.024-7.086-1.643-14.553-8.487-17.285l-6.649-2.654c-2.368-.945-4.243-2.823-5.185-5.192-2.84-7.141-11.261-10.222-18.039-6.599l-1.586.848c-2.364 1.264-5.159 1.444-7.665.494l-7.246-2.745c-6.12-2.318-12.853 1.433-14.103 7.857-.673 3.463-3.252 6.245-6.653 7.18l-1.071.294c-7.464 2.051-12.026 9.575-10.394 17.141.799 3.705-.734 7.524-3.874 9.647-4.905 3.318-6.004 10.082-2.402 14.782l1.16 1.514c2.863 3.735 2.478 9.021-.896 12.302-5.609 5.456-8.1 13.366-6.629 21.051l.001.006c.864 4.512-1.703 8.977-6.036 10.502-7.967 2.804-13.854 9.616-15.476 17.904l-.178.91c-.798 4.081-4.213 7.133-8.358 7.47l-4.547.37c-6.6.537-12.615 3.995-16.4 9.429-2.282 3.276-6.403 4.726-10.234 3.601l-2.555-.75c-9.139-2.684-18.908-2.274-27.79 1.165-3.881 1.503-8.288.239-10.783-3.093l-1.856-2.478c-4.27-5.701-11.73-7.997-18.466-5.681-3.523 1.211-7.429.199-9.92-2.571l-4.187-4.655c-4.71-5.237-12.586-6.14-18.359-2.106-2.31 1.615-5.229 2.092-7.934 1.298l-11.854-3.481c-4.969-1.459-10.171 1.429-11.56 6.418-.967 3.474-3.859 6.074-7.416 6.667l-6.141 1.025c-8.382 1.399-14.097 9.256-12.847 17.661.454 3.056-.641 6.137-2.921 8.22l-7.165 6.545c-4.574 4.178-4.73 11.331-.342 15.704 2.822 2.813 3.535 7.113 1.771 10.686-3.266 6.615-.827 14.629 5.571 18.302l1.227.704c2.951 1.694 4.738 4.867 4.659 8.268-.169 7.239 5.345 13.35 12.563 13.924l4.908.39c2.618.208 5.026 1.515 6.627 3.598l4.324 5.628c4.539 5.907 11.99 8.794 19.324 7.487 5.428-.967 11.015.355 15.435 3.652l1.701 1.269c7.944 5.927 18.299 7.557 27.68 4.356 4.363-1.483 9.105-1.416 13.422.195z" fill="url(#SVGID_16_)"/><path d="m371.917 325.474c7.213-8.498 10.638-19.576 9.48-30.663-.297-2.848.736-5.675 2.801-7.659 5.323-5.115 6.897-13.003 3.945-19.769l-1.056-2.421c-1.143-2.619-1.016-5.619.345-8.132 5.066-9.36 4.912-20.679-.408-29.897l-1.424-2.468c-1.257-2.178-1.577-4.772-.886-7.19 2.024-7.086-1.643-14.553-8.487-17.285l-6.649-2.654c-.624-.249-1.211-.566-1.758-.937 1.039 6.552-.049 13.371-3.303 19.383-1.36 2.513-1.487 5.513-.345 8.132l1.056 2.422c2.952 6.766 1.378 14.655-3.945 19.769-2.065 1.984-3.099 4.81-2.801 7.659 1.158 11.087-2.267 22.164-9.48 30.663l-3.122 3.679c-1.515 1.785-2.299 4.076-2.197 6.414l.054 1.236c.437 9.968-5.094 19.241-14.072 23.594-2.836 1.375-4.78 4.094-5.165 7.222-1.307 10.635-8.591 19.581-18.741 23.015l-4.536 1.535c-2.866.97-5.079 3.275-5.932 6.178l-1.604 5.462c-2.507 8.538-10.583 14.209-19.465 13.669-6.145-.374-11.935 2.903-14.777 8.364-2.799 5.377-8.461 8.645-14.517 8.378l-13.252-.584c-3.268-.144-6.37 1.442-8.167 4.175-3.869 5.886-11.131 8.552-17.89 6.567l-5.322-1.563c-4.308-1.265-8.949-.663-12.792 1.659-7.105 4.293-15.783 5.105-23.56 2.203l-5.977-2.23c-4.318-1.611-9.06-1.678-13.421-.19-9.38 3.201-19.736 1.571-27.68-4.356l-1.701-1.269c-4.419-3.297-10.006-4.619-15.435-3.652-7.334 1.307-14.785-1.58-19.324-7.487l-4.324-5.628c-1.6-2.083-4.008-3.39-6.627-3.598l-4.908-.39c-.375-.03-.742-.083-1.107-.142-3.26 6.613-.82 14.622 5.575 18.294l1.227.704c2.951 1.694 4.738 4.867 4.659 8.268-.169 7.239 5.345 13.35 12.563 13.924l4.908.39c2.618.208 5.026 1.515 6.626 3.598l4.324 5.628c4.539 5.907 11.99 8.794 19.324 7.487 5.428-.967 11.015.355 15.435 3.652l1.701 1.269c7.944 5.927 18.299 7.557 27.68 4.356 4.361-1.488 9.104-1.421 13.421.19l5.977 2.23c7.778 2.902 16.455 2.091 23.56-2.203 3.843-2.322 8.484-2.924 12.792-1.659l5.322 1.563c6.759 1.985 14.021-.681 17.89-6.568 1.797-2.733 4.899-4.319 8.167-4.175l13.252.584c6.056.267 11.718-3.001 14.517-8.378 2.842-5.461 8.632-8.738 14.777-8.364 8.882.54 16.958-5.131 19.465-13.669l1.604-5.462c.852-2.903 3.066-5.208 5.932-6.178l4.536-1.535c10.149-3.435 17.434-12.38 18.741-23.015.384-3.128 2.329-5.847 5.165-7.222 8.978-4.352 14.509-13.626 14.072-23.594l-.054-1.236c-.103-2.339.682-4.63 2.197-6.414z" fill="url(#SVGID_17_)"/><g opacity=".6"><g><circle cx="129.04" cy="333.115" fill="url(#SVGID_18_)" r="7.644"/><circle cx="109.853" cy="348.082" fill="url(#SVGID_19_)" r="6.035"/><circle cx="133.665" cy="360.353" fill="url(#SVGID_20_)" r="3.638"/></g><g><circle cx="166.197" cy="350.031" fill="url(#SVGID_21_)" r="5.648"/><circle cx="148.502" cy="346.838" fill="url(#SVGID_22_)" r="4.459"/><circle cx="153.475" cy="365.997" fill="url(#SVGID_23_)" r="2.688"/></g><g><circle cx="364.983" cy="255.267" fill="url(#SVGID_24_)" r="6.895"/><circle cx="343.381" cy="251.369" fill="url(#SVGID_25_)" r="5.444"/><circle cx="349.453" cy="274.757" fill="url(#SVGID_26_)" r="3.282"/></g></g></g><g><path d="m320.563 113.124c1.839-16.564 15.021-28.694 29.443-27.092 14.421 1.602 24.621 16.328 22.781 32.892s-15.021 28.694-29.443 27.092c-14.421-1.602-24.621-16.328-22.781-32.892z" fill="url(#SVGID_27_)"/><path d="m320.563 113.124c11.17 19.102 28.725 17.877 42.639-2.973 16.433-24.627 30.683-29.137 39.933-28.11 28.698 3.187-7.187 100.385-40.693 96.664s-45.571-32.341-41.879-65.581z" fill="url(#SVGID_28_)"/></g></g><g><circle cx="432.403" cy="256.03" fill="url(#SVGID_29_)" r="26.269"/><g><path d="m260.344 506.055 5.977 2.23c7.778 2.902 16.455 2.091 23.56-2.203 3.843-2.322 8.484-2.924 12.792-1.659l5.322 1.563c6.759 1.985 14.021-.681 17.89-6.568 1.797-2.733 4.899-4.319 8.167-4.175l13.252.584c6.056.267 11.718-3.001 14.517-8.378 2.842-5.461 8.632-8.738 14.777-8.364 8.882.54 16.958-5.131 19.465-13.669l1.604-5.462c.852-2.903 3.066-5.208 5.932-6.178l4.536-1.535c10.149-3.435 17.434-12.38 18.741-23.015.384-3.128 2.329-5.847 5.165-7.222 8.978-4.352 14.509-13.626 14.072-23.594l-.054-1.236c-.103-2.339.682-4.63 2.197-6.414l3.122-3.679c7.213-8.498 10.638-19.576 9.48-30.663-.297-2.848.736-5.675 2.801-7.659 5.323-5.115 6.897-13.003 3.945-19.769l-1.056-2.422c-1.143-2.619-1.016-5.619.345-8.132 5.066-9.36 4.912-20.679-.408-29.897l-1.424-2.468c-1.257-2.178-1.577-4.772-.886-7.19 2.024-7.086-1.643-14.553-8.487-17.285l-6.649-2.654c-2.368-.945-4.243-2.823-5.185-5.192-2.84-7.141-11.261-10.222-18.039-6.599l-1.585.849c-2.364 1.264-5.159 1.444-7.665.495l-7.246-2.745c-6.12-2.318-12.853 1.433-14.103 7.857-.673 3.463-3.252 6.245-6.653 7.18l-1.071.294c-7.464 2.051-12.026 9.575-10.394 17.141.799 3.705-.734 7.524-3.874 9.647-4.905 3.318-6.004 10.082-2.402 14.782l1.16 1.514c2.863 3.735 2.478 9.021-.896 12.302-5.609 5.456-8.1 13.366-6.629 21.051l.001.006c.864 4.512-1.703 8.977-6.036 10.502-7.967 2.804-13.854 9.616-15.476 17.904l-.178.91c-.798 4.081-4.213 7.133-8.358 7.47l-4.547.37c-6.6.537-12.615 3.995-16.4 9.429-2.282 3.276-6.403 4.726-10.233 3.601l-2.555-.75c-9.139-2.684-18.908-2.274-27.79 1.165-3.881 1.503-8.288.239-10.783-3.093l-1.856-2.478c-4.27-5.701-11.73-7.997-18.466-5.681-3.523 1.211-7.429.199-9.92-2.571l-4.187-4.655c-4.71-5.237-12.586-6.14-18.359-2.106-2.31 1.615-5.229 2.092-7.934 1.298l-11.854-3.481c-4.969-1.459-10.171 1.429-11.56 6.418-.967 3.474-3.859 6.074-7.416 6.667l-6.141 1.025c-8.382 1.399-14.097 9.256-12.847 17.661.454 3.056-.641 6.137-2.921 8.22l-7.165 6.545c-4.574 4.178-4.73 11.331-.342 15.704 2.822 2.813 3.535 7.113 1.771 10.686-3.266 6.615-.827 14.629 5.571 18.302l1.227.704c2.951 1.694 4.738 4.867 4.659 8.268-.169 7.239 5.345 13.35 12.563 13.924l4.908.39c2.618.208 5.026 1.515 6.627 3.598l4.324 5.628c4.539 5.907 11.99 8.794 19.324 7.487 5.428-.967 11.015.355 15.435 3.652l1.701 1.269c7.944 5.927 18.299 7.557 27.68 4.356 4.361-1.485 9.103-1.418 13.42.193z" fill="url(#SVGID_30_)"/><path d="m451.378 387.081c7.213-8.498 10.638-19.576 9.48-30.663-.297-2.848.736-5.675 2.801-7.659 5.323-5.115 6.897-13.003 3.945-19.769l-1.056-2.422c-1.143-2.619-1.016-5.619.345-8.132 5.066-9.36 4.912-20.679-.408-29.897l-1.424-2.468c-1.257-2.178-1.577-4.772-.886-7.19 2.024-7.086-1.643-14.553-8.487-17.285l-6.649-2.654c-.624-.249-1.211-.566-1.758-.937 1.039 6.552-.049 13.371-3.303 19.383-1.36 2.513-1.488 5.513-.345 8.132l1.056 2.422c2.952 6.766 1.378 14.655-3.945 19.769-2.065 1.984-3.099 4.81-2.801 7.659 1.158 11.087-2.267 22.164-9.48 30.663l-3.122 3.679c-1.515 1.785-2.299 4.076-2.197 6.414l.054 1.236c.437 9.968-5.094 19.241-14.072 23.594-2.836 1.375-4.78 4.094-5.165 7.222-1.307 10.635-8.591 19.581-18.741 23.015l-4.536 1.535c-2.866.97-5.079 3.275-5.932 6.178l-1.604 5.462c-2.507 8.538-10.583 14.209-19.465 13.669-6.145-.374-11.935 2.903-14.777 8.364-2.799 5.377-8.461 8.645-14.517 8.378l-13.252-.584c-3.268-.144-6.37 1.442-8.167 4.175-3.869 5.886-11.131 8.552-17.89 6.567l-5.322-1.563c-4.308-1.265-8.949-.663-12.792 1.659-7.105 4.293-15.783 5.105-23.56 2.203l-5.977-2.23c-4.318-1.611-9.06-1.678-13.421-.19-9.38 3.201-19.736 1.571-27.68-4.356l-1.701-1.269c-4.419-3.297-10.006-4.619-15.435-3.652-7.334 1.307-14.785-1.58-19.324-7.487l-4.324-5.628c-1.6-2.083-4.008-3.39-6.626-3.598l-4.908-.39c-.375-.03-.742-.083-1.107-.142-3.26 6.613-.82 14.622 5.575 18.294l1.227.704c2.951 1.694 4.738 4.867 4.659 8.268-.169 7.239 5.345 13.35 12.563 13.924l4.908.39c2.618.208 5.026 1.515 6.626 3.598l4.324 5.628c4.539 5.907 11.99 8.794 19.324 7.487 5.428-.967 11.015.355 15.435 3.652l1.701 1.269c7.944 5.927 18.299 7.557 27.68 4.356 4.361-1.488 9.104-1.421 13.421.19l5.977 2.23c7.778 2.902 16.455 2.091 23.56-2.203 3.843-2.322 8.484-2.924 12.792-1.659l5.322 1.563c6.759 1.985 14.021-.681 17.89-6.568 1.797-2.733 4.899-4.319 8.167-4.175l13.252.584c6.056.267 11.718-3.001 14.517-8.378 2.842-5.461 8.632-8.738 14.777-8.364 8.882.54 16.958-5.131 19.465-13.669l1.604-5.462c.852-2.903 3.066-5.208 5.932-6.178l4.536-1.535c10.149-3.435 17.434-12.38 18.741-23.015.384-3.128 2.329-5.847 5.165-7.222 8.978-4.352 14.509-13.626 14.072-23.594l-.054-1.236c-.103-2.339.682-4.63 2.197-6.414z" fill="url(#SVGID_31_)"/><g opacity=".6"><g><circle cx="208.501" cy="394.723" fill="url(#SVGID_32_)" r="7.644"/><circle cx="189.314" cy="409.69" fill="url(#SVGID_33_)" r="6.035"/><circle cx="213.126" cy="421.96" fill="url(#SVGID_34_)" r="3.638"/></g><g><circle cx="245.658" cy="411.638" fill="url(#SVGID_35_)" r="5.648"/><circle cx="227.963" cy="408.445" fill="url(#SVGID_36_)" r="4.459"/><circle cx="232.936" cy="427.604" fill="url(#SVGID_37_)" r="2.688"/></g><g><circle cx="444.444" cy="316.874" fill="url(#SVGID_38_)" r="6.895"/><circle cx="422.842" cy="312.976" fill="url(#SVGID_39_)" r="5.444"/><circle cx="428.914" cy="336.364" fill="url(#SVGID_40_)" r="3.282"/></g></g></g><g><path d="m400.024 174.731c1.84-16.564 15.021-28.694 29.443-27.092 14.421 1.602 24.621 16.328 22.781 32.892s-15.021 28.694-29.443 27.092c-14.421-1.602-24.621-16.328-22.781-32.892z" fill="url(#SVGID_41_)"/><path d="m400.024 174.731c11.17 19.102 28.725 17.877 42.639-2.973 16.433-24.627 30.683-29.137 39.933-28.11 28.698 3.187-7.187 100.385-40.693 96.664s-45.571-32.34-41.879-65.581z" fill="url(#SVGID_42_)"/></g></g></g></svg>