<svg height="512pt" viewBox="0 0 512 512" width="512pt" xmlns="http://www.w3.org/2000/svg"><path d="m256 512c-68.378906 0-132.667969-26.628906-181.019531-74.980469-48.351563-48.351562-74.980469-112.640625-74.980469-181.019531s26.628906-132.667969 74.980469-181.019531c48.351562-48.351563 112.640625-74.980469 181.019531-74.980469s132.667969 26.628906 181.019531 74.980469c48.351563 48.351562 74.980469 112.640625 74.980469 181.019531s-26.628906 132.667969-74.980469 181.019531c-48.351562 48.351563-112.640625 74.980469-181.019531 74.980469zm0 0" fill="#ce795f"/><path d="m256 31.074219c-60.082031 0-116.566406 23.394531-159.046875 65.878906-42.484375 42.484375-65.878906 98.964844-65.878906 159.046875 0 123.921875 100.191406 224.925781 224.925781 224.925781 60.082031 0 116.566406-23.394531 159.046875-65.878906 42.484375-42.484375 65.882813-98.964844 65.882813-159.046875-.003907-124.6875-100.960938-224.925781-224.929688-224.925781zm0 0" fill="#b66652"/><path d="m450.1875 256c0 107.246094-86.941406 194.1875-194.1875 194.1875s-194.1875-86.941406-194.1875-194.1875 86.941406-194.1875 194.1875-194.1875 194.1875 86.941406 194.1875 194.1875zm0 0" fill="#ffb578"/><path d="m369.78125 98.664062c-10.351562 12.144532-9.800781 30.398438 1.679688 41.875 63.660156 63.664063 63.660156 167.253907 0 230.917969-63.667969 63.664063-167.253907 63.664063-230.921876 0-11.488281-11.488281-29.769531-12.03125-41.910156-1.648437 35.175782 48.613281 92.351563 80.378906 157.371094 80.378906 107.246094 0 194.1875-86.941406 194.1875-194.1875 0-63.976562-31.433594-121.75-80.40625-157.335938zm0 0" fill="#f7a16e"/><path d="m49.507812 4.296875c-6.164062-5.90625-15.949218-5.695313-21.855468.46875-5.902344 6.164063-5.695313 15.945313.46875 21.851563l154.753906 148.257812c2.203125-7.703125 5.25-15.058594 9.023438-21.96875-67.683594-70.640625-142.3125-148.535156-142.390626-148.609375zm0 0" fill="#b66652"/><path d="m4.296875 28.121094c-5.90625 6.164062-5.695313 15.949218.46875 21.855468l174.742187 167.410157c-.640624-5.382813-.894531-10.886719-.710937-16.484375.136719-4.304688.535156-8.542969 1.171875-12.710938-70.410156-73.488281-153.734375-160.457031-153.820312-160.539062-6.164063-5.902344-15.949219-5.695313-21.851563.46875zm0 0" fill="#b66652"/><path d="m323.988281 351.464844c0 4.265625-3.460937 7.726562-7.726562 7.726562s-7.726563-3.460937-7.726563-7.726562c0-4.269532 3.460938-7.726563 7.726563-7.726563s7.726562 3.457031 7.726562 7.726563zm0 0" fill="#f7a16e"/><path d="m397.105469 343.414062-10.304688-10.300781c-3.015625-3.019531-7.910156-3.019531-10.925781 0-3.015625 3.015625-3.015625 7.910157 0 10.925781l10.304688 10.300782c1.507812 1.507812 3.484374 2.261718 5.460937 2.261718s3.957031-.753906 5.464844-2.261718c3.015625-3.015625 3.015625-7.910156 0-10.925782zm0 0" fill="#28d05b"/><path d="m299.238281 394.921875c-3.019531-3.015625-7.910156-3.015625-10.925781 0-3.019531 3.019531-3.019531 7.910156 0 10.925781l10.300781 10.304688c1.507813 1.507812 3.484375 2.261718 5.460938 2.261718 1.976562 0 3.957031-.753906 5.464843-2.261718 3.015626-3.019532 3.015626-7.910156 0-10.925782zm0 0" fill="#28d05b"/><path d="m105.25 325.699219c-1.976562 0-3.953125-.753907-5.460938-2.265625l-10.304687-10.300782c-3.015625-3.015624-3.015625-7.910156 0-10.925781 3.019531-3.019531 7.910156-3.019531 10.925781 0l10.304688 10.300781c3.015625 3.019532 3.015625 7.910157 0 10.925782-1.511719 1.511718-3.488282 2.265625-5.464844 2.265625zm0 0" fill="#28d05b"/><path d="m138.558594 217.527344c0 4.269531-3.457032 7.726562-7.726563 7.726562-4.265625 0-7.726562-3.457031-7.726562-7.726562 0-4.265625 3.460937-7.726563 7.726562-7.726563 4.269531 0 7.726563 3.460938 7.726563 7.726563zm0 0" fill="#f7a16e"/><path d="m156.835938 279.34375h-14.570313c-4.265625 0-7.726563-3.457031-7.726563-7.726562 0-4.265626 3.460938-7.726563 7.726563-7.726563h14.570313c4.265624 0 7.726562 3.460937 7.726562 7.726563 0 4.269531-3.460938 7.726562-7.726562 7.726562zm0 0" fill="#28d05b"/><path d="m289.351562 117.394531-10.300781-10.300781c-3.019531-3.019531-3.019531-7.910156 0-10.929688 3.015625-3.015624 7.910157-3.015624 10.925781 0l10.300782 10.304688c3.019531 3.015625 3.019531 7.90625 0 10.925781-3.015625 3.015625-7.910156 3.015625-10.925782 0zm0 0" fill="#28d05b"/><g fill="#ff5368"><path d="m272.492188 258.738281c0 4.269531-3.460938 7.726563-7.726563 7.726563-4.269531 0-7.726563-3.457032-7.726563-7.726563 0-4.265625 3.457032-7.726562 7.726563-7.726562 4.265625 0 7.726563 3.460937 7.726563 7.726562zm0 0"/><path d="m159.164062 382.367188c0 4.269531-3.460937 7.726562-7.726562 7.726562s-7.726562-3.457031-7.726562-7.726562c0-4.265626 3.460937-7.726563 7.726562-7.726563s7.726562 3.460937 7.726562 7.726563zm0 0"/><path d="m262.1875 423.578125c0 4.265625-3.457031 7.726563-7.722656 7.726563-4.269532 0-7.726563-3.460938-7.726563-7.726563s3.457031-7.726563 7.726563-7.726563c4.265625 0 7.722656 3.460938 7.722656 7.726563zm0 0"/><path d="m344.609375 135.109375c0 4.265625-3.460937 7.726563-7.726563 7.726563-4.265624 0-7.726562-3.460938-7.726562-7.726563s3.460938-7.726563 7.726562-7.726563c4.265626 0 7.726563 3.460938 7.726563 7.726563zm0 0"/></g><path d="m180.734375 125.945312h72.113281c8.53125 0 15.453125 6.917969 15.453125 15.449219v72.113281c0 8.535157-6.921875 15.453126-15.453125 15.453126h-72.113281c-8.535156 0-15.453125-6.917969-15.453125-15.453126v-72.113281c0-8.53125 6.917969-15.449219 15.453125-15.449219zm0 0" fill="#fff9eb"/><path d="m252.847656 125.945312h-15.453125v72.109376h-72.113281v15.453124c0 8.535157 6.917969 15.453126 15.453125 15.453126h72.113281c8.53125 0 15.453125-6.917969 15.453125-15.453126v-72.113281c0-8.53125-6.917969-15.449219-15.453125-15.449219zm0 0" fill="#e9e3d5"/><path d="m299.105469 248.945312 50.992187-50.992187c6.035156-6.035156 15.820313-6.035156 21.851563 0l50.992187 50.992187c6.035156 6.035157 6.035156 15.820313 0 21.851563l-50.992187 50.992187c-6.03125 6.035157-15.816407 6.035157-21.851563 0l-50.992187-50.992187c-6.035157-6.03125-6.035157-15.816406 0-21.851563zm0 0" fill="#fff9eb"/><path d="m350.097656 197.953125-10.925781 10.929687 50.992187 50.988282-50.992187 50.992187 10.925781 10.925781c6.035156 6.035157 15.820313 6.035157 21.855469 0l50.988281-50.988281c6.035156-6.035156 6.035156-15.820312 0-21.855469l-50.988281-50.988281c-6.035156-6.039062-15.820313-6.039062-21.855469-.003906zm0 0" fill="#e9e3d5"/><path d="m154.871094 321.0625 50.992187-50.988281c6.035157-6.035157 15.816407-6.035157 21.851563 0l50.992187 50.988281c6.035157 6.035156 6.035157 15.820312 0 21.855469l-50.992187 50.988281c-6.035156 6.035156-15.816406 6.035156-21.851563 0l-50.992187-50.988281c-6.035156-6.035157-6.035156-15.820313 0-21.855469zm0 0" fill="#fff9eb"/><path d="m205.863281 270.070312-10.925781 10.929688 50.992188 50.988281-50.992188 50.992188 10.925781 10.925781c6.035157 6.035156 15.820313 6.035156 21.855469 0l50.988281-50.988281c6.035157-6.035157 6.035157-15.820313 0-21.855469l-50.988281-50.988281c-6.035156-6.039063-15.820312-6.035157-21.855469-.003907zm0 0" fill="#e9e3d5"/></svg>