<svg id="Capa_1" enable-background="new 0 0 512 512" height="512" viewBox="0 0 512 512" width="512" xmlns="http://www.w3.org/2000/svg"><g><g><path d="m507.953 202.659c0-98.408-112.803-178.183-251.953-178.183-139.149 0-251.953 79.775-251.953 178.183 0 4.158.219 8.279.615 12.365-.393 5.291-.615 10.626-.615 16.008 0 84.371 58.31 158.19 131.885 198.657-.149 1.111-.234 2.23-.234 3.359 0 30.086 53.861 54.476 120.302 54.476s120.302-24.39 120.302-54.476c0-1.129-.085-2.248-.234-3.359 73.575-40.466 131.885-114.286 131.885-198.657 0-5.401-.213-10.755-.609-16.064.392-4.068.609-8.171.609-12.309z" fill="#e9c278"/><g fill="#f9fbfc"><path d="m486.803 143.875c-1.713 0-3.102 1.389-3.102 3.102s1.389 3.102 3.102 3.102 3.102-1.389 3.102-3.102-1.389-3.102-3.102-3.102z"/><path d="m494.077 156.601c0 1.713 1.389 3.102 3.102 3.102 1.22 0 2.265-.711 2.772-1.735-.52-1.423-1.065-2.838-1.633-4.247-.354-.14-.736-.223-1.139-.223-1.713 0-3.102 1.389-3.102 3.103z"/><path d="m486.803 163.875c-1.713 0-3.102 1.389-3.102 3.102s1.389 3.102 3.102 3.102 3.102-1.389 3.102-3.102-1.389-3.102-3.102-3.102z"/><path d="m497.179 273.498c-1.713 0-3.102 1.389-3.102 3.103 0 1.713 1.389 3.102 3.102 3.102s3.102-1.389 3.102-3.102c0-1.714-1.389-3.103-3.102-3.103z"/><path d="m486.803 283.875c-1.713 0-3.102 1.389-3.102 3.103 0 1.713 1.389 3.102 3.102 3.102s3.102-1.389 3.102-3.102c0-1.714-1.389-3.103-3.102-3.103z"/><path d="m486.803 303.875c-1.713 0-3.102 1.389-3.102 3.103 0 1.713 1.389 3.102 3.102 3.102s3.102-1.389 3.102-3.102c0-1.714-1.389-3.103-3.102-3.103z"/><path d="m466.803 123.875c-1.713 0-3.102 1.389-3.102 3.102s1.389 3.102 3.102 3.102 3.102-1.389 3.102-3.102-1.389-3.102-3.102-3.102z"/><path d="m477.179 133.498c-1.713 0-3.102 1.389-3.102 3.103 0 1.713 1.389 3.102 3.102 3.102s3.102-1.389 3.102-3.102c0-1.714-1.389-3.103-3.102-3.103z"/><path d="m466.803 143.875c-1.713 0-3.102 1.389-3.102 3.102s1.389 3.102 3.102 3.102 3.102-1.389 3.102-3.102-1.389-3.102-3.102-3.102z"/><path d="m477.179 153.498c-1.713 0-3.102 1.389-3.102 3.103 0 1.713 1.389 3.102 3.102 3.102s3.102-1.389 3.102-3.102c0-1.714-1.389-3.103-3.102-3.103z"/><path d="m477.179 293.498c-1.713 0-3.102 1.389-3.102 3.103 0 1.713 1.389 3.102 3.102 3.102s3.102-1.389 3.102-3.102c0-1.714-1.389-3.103-3.102-3.103z"/><path d="m466.803 303.875c-1.713 0-3.102 1.389-3.102 3.103 0 1.713 1.389 3.102 3.102 3.102s3.102-1.389 3.102-3.102c0-1.714-1.389-3.103-3.102-3.103z"/><path d="m477.179 313.498c-1.713 0-3.102 1.389-3.102 3.103 0 1.713 1.389 3.102 3.102 3.102s3.102-1.389 3.102-3.102c0-1.714-1.389-3.103-3.102-3.103z"/><path d="m466.803 323.875c-1.713 0-3.102 1.389-3.102 3.103 0 1.713 1.389 3.102 3.102 3.102s3.102-1.389 3.102-3.102c0-1.714-1.389-3.103-3.102-3.103z"/><path d="m466.803 343.875c-1.713 0-3.102 1.389-3.102 3.103 0 1.713 1.389 3.102 3.102 3.102.176 0 .346-.023.514-.052.854-1.182 1.705-2.367 2.536-3.562-.245-1.469-1.512-2.591-3.05-2.591z"/><path d="m457.179 113.498c-1.713 0-3.102 1.389-3.102 3.103 0 1.713 1.389 3.102 3.102 3.102s3.102-1.389 3.102-3.102c0-1.714-1.389-3.103-3.102-3.103z"/><path d="m457.179 133.498c-1.713 0-3.102 1.389-3.102 3.103 0 1.713 1.389 3.102 3.102 3.102s3.102-1.389 3.102-3.102c0-1.714-1.389-3.103-3.102-3.103z"/><path d="m457.179 153.498c-1.713 0-3.102 1.389-3.102 3.103 0 1.713 1.389 3.102 3.102 3.102s3.102-1.389 3.102-3.102c0-1.714-1.389-3.103-3.102-3.103z"/><path d="m457.179 313.498c-1.713 0-3.102 1.389-3.102 3.103 0 1.713 1.389 3.102 3.102 3.102s3.102-1.389 3.102-3.102c0-1.714-1.389-3.103-3.102-3.103z"/><path d="m446.803 323.875c-1.713 0-3.102 1.389-3.102 3.103 0 1.713 1.389 3.102 3.102 3.102s3.102-1.389 3.102-3.102c0-1.714-1.389-3.103-3.102-3.103z"/><path d="m457.179 333.498c-1.713 0-3.102 1.389-3.102 3.103 0 1.713 1.389 3.102 3.102 3.102s3.102-1.389 3.102-3.102c0-1.714-1.389-3.103-3.102-3.103z"/><path d="m446.803 343.875c-1.713 0-3.102 1.389-3.102 3.103 0 1.713 1.389 3.102 3.102 3.102s3.102-1.389 3.102-3.102c0-1.714-1.389-3.103-3.102-3.103z"/><path d="m457.179 353.498c-1.713 0-3.102 1.389-3.102 3.103 0 1.713 1.389 3.102 3.102 3.102s3.102-1.389 3.102-3.102c0-1.714-1.389-3.103-3.102-3.103z"/><path d="m446.803 363.875c-1.713 0-3.102 1.389-3.102 3.103 0 1.713 1.389 3.102 3.102 3.102s3.102-1.389 3.102-3.102c0-1.714-1.389-3.103-3.102-3.103z"/><path d="m437.179 333.498c-1.713 0-3.102 1.389-3.102 3.103 0 1.713 1.389 3.102 3.102 3.102s3.102-1.389 3.102-3.102c0-1.714-1.389-3.103-3.102-3.103z"/><path d="m426.803 343.875c-1.713 0-3.102 1.389-3.102 3.103 0 1.713 1.389 3.102 3.102 3.102s3.102-1.389 3.102-3.102c0-1.714-1.389-3.103-3.102-3.103z"/><path d="m437.179 353.498c-1.713 0-3.102 1.389-3.102 3.103 0 1.713 1.389 3.102 3.102 3.102s3.102-1.389 3.102-3.102c0-1.714-1.389-3.103-3.102-3.103z"/><path d="m426.803 363.875c-1.713 0-3.102 1.389-3.102 3.103 0 1.713 1.389 3.102 3.102 3.102s3.102-1.389 3.102-3.102c0-1.714-1.389-3.103-3.102-3.103z"/><path d="m437.179 373.498c-1.713 0-3.102 1.389-3.102 3.103 0 1.713 1.389 3.102 3.102 3.102s3.102-1.389 3.102-3.102c0-1.714-1.389-3.103-3.102-3.103z"/><path d="m426.803 383.875c-1.713 0-3.102 1.389-3.102 3.103 0 1.713 1.389 3.102 3.102 3.102s3.102-1.389 3.102-3.102c0-1.714-1.389-3.103-3.102-3.103z"/><path d="m417.179 353.498c-1.713 0-3.102 1.389-3.102 3.103 0 1.713 1.389 3.102 3.102 3.102s3.102-1.389 3.102-3.102c0-1.714-1.389-3.103-3.102-3.103z"/><path d="m406.803 363.875c-1.713 0-3.102 1.389-3.102 3.103 0 1.713 1.389 3.102 3.102 3.102s3.102-1.389 3.102-3.102c0-1.714-1.389-3.103-3.102-3.103z"/><path d="m417.179 373.498c-1.713 0-3.102 1.389-3.102 3.103 0 1.713 1.389 3.102 3.102 3.102s3.102-1.389 3.102-3.102c0-1.714-1.389-3.103-3.102-3.103z"/><path d="m406.803 383.875c-1.713 0-3.102 1.389-3.102 3.103 0 1.713 1.389 3.102 3.102 3.102s3.102-1.389 3.102-3.102c0-1.714-1.389-3.103-3.102-3.103z"/><path d="m417.179 393.498c-1.713 0-3.102 1.389-3.102 3.103 0 1.713 1.389 3.102 3.102 3.102s3.102-1.389 3.102-3.102c0-1.714-1.389-3.103-3.102-3.103z"/><path d="m406.803 403.875c-1.713 0-3.102 1.389-3.102 3.103 0 1.713 1.389 3.102 3.102 3.102.057 0 .111-.014.168-.017.918-.668 1.827-1.35 2.737-2.029.121-.331.197-.684.197-1.057 0-1.713-1.389-3.102-3.102-3.102z"/><path d="m397.179 353.498c-1.713 0-3.102 1.389-3.102 3.103 0 1.713 1.389 3.102 3.102 3.102s3.102-1.389 3.102-3.102c0-1.714-1.389-3.103-3.102-3.103z"/><path d="m386.803 363.875c-1.713 0-3.102 1.389-3.102 3.103 0 1.713 1.389 3.102 3.102 3.102s3.102-1.389 3.102-3.102c0-1.714-1.389-3.103-3.102-3.103z"/><path d="m397.179 373.498c-1.713 0-3.102 1.389-3.102 3.103 0 1.713 1.389 3.102 3.102 3.102s3.102-1.389 3.102-3.102c0-1.714-1.389-3.103-3.102-3.103z"/><path d="m386.803 383.875c-1.713 0-3.102 1.389-3.102 3.103 0 1.713 1.389 3.102 3.102 3.102s3.102-1.389 3.102-3.102c0-1.714-1.389-3.103-3.102-3.103z"/><path d="m397.179 393.498c-1.713 0-3.102 1.389-3.102 3.103 0 1.713 1.389 3.102 3.102 3.102s3.102-1.389 3.102-3.102c0-1.714-1.389-3.103-3.102-3.103z"/><path d="m386.803 403.875c-1.713 0-3.102 1.389-3.102 3.103 0 1.713 1.389 3.102 3.102 3.102s3.102-1.389 3.102-3.102c0-1.714-1.389-3.103-3.102-3.103z"/><path d="m366.803 363.875c-1.713 0-3.102 1.389-3.102 3.103 0 1.713 1.389 3.102 3.102 3.102s3.102-1.389 3.102-3.102c0-1.714-1.389-3.103-3.102-3.103z"/><path d="m377.179 373.498c-1.713 0-3.102 1.389-3.102 3.103 0 1.713 1.389 3.102 3.102 3.102s3.102-1.389 3.102-3.102c0-1.714-1.389-3.103-3.102-3.103z"/><path d="m366.803 383.875c-1.713 0-3.102 1.389-3.102 3.103 0 1.713 1.389 3.102 3.102 3.102s3.102-1.389 3.102-3.102c0-1.714-1.389-3.103-3.102-3.103z"/><path d="m377.179 393.498c-1.713 0-3.102 1.389-3.102 3.103 0 1.713 1.389 3.102 3.102 3.102s3.102-1.389 3.102-3.102c0-1.714-1.389-3.103-3.102-3.103z"/><path d="m366.803 403.875c-1.713 0-3.102 1.389-3.102 3.103 0 1.713 1.389 3.102 3.102 3.102s3.102-1.389 3.102-3.102c0-1.714-1.389-3.103-3.102-3.103z"/><path d="m377.179 413.498c-1.713 0-3.102 1.389-3.102 3.103 0 1.713 1.389 3.102 3.102 3.102s3.102-1.389 3.102-3.102c0-1.714-1.389-3.103-3.102-3.103z"/><path d="m366.803 423.875c-1.713 0-3.102 1.389-3.102 3.103 0 1.713 1.389 3.102 3.102 3.102s3.102-1.389 3.102-3.102c0-1.714-1.389-3.103-3.102-3.103z"/><path d="m357.179 373.498c-1.713 0-3.102 1.389-3.102 3.103 0 1.713 1.389 3.102 3.102 3.102s3.102-1.389 3.102-3.102c0-1.714-1.389-3.103-3.102-3.103z"/><path d="m346.803 383.875c-1.713 0-3.102 1.389-3.102 3.103 0 1.713 1.389 3.102 3.102 3.102s3.102-1.389 3.102-3.102c0-1.714-1.389-3.103-3.102-3.103z"/><path d="m357.179 393.498c-1.713 0-3.102 1.389-3.102 3.103 0 1.713 1.389 3.102 3.102 3.102s3.102-1.389 3.102-3.102c0-1.714-1.389-3.103-3.102-3.103z"/><path d="m346.803 403.875c-1.713 0-3.102 1.389-3.102 3.103 0 1.713 1.389 3.102 3.102 3.102s3.102-1.389 3.102-3.102c0-1.714-1.389-3.103-3.102-3.103z"/><path d="m357.179 413.498c-1.713 0-3.102 1.389-3.102 3.103 0 1.713 1.389 3.102 3.102 3.102s3.102-1.389 3.102-3.102c0-1.714-1.389-3.103-3.102-3.103z"/><path d="m346.803 423.875c-1.713 0-3.102 1.389-3.102 3.103 0 1.713 1.389 3.102 3.102 3.102s3.102-1.389 3.102-3.102c0-1.714-1.389-3.103-3.102-3.103z"/><path d="m357.179 433.498c-1.713 0-3.102 1.389-3.102 3.103 0 1.423.964 2.61 2.271 2.975 1.221-.553 2.436-1.125 3.651-1.696.178-.391.283-.822.283-1.279-.001-1.714-1.39-3.103-3.103-3.103z"/><path d="m337.179 373.498c-1.713 0-3.102 1.389-3.102 3.103 0 1.713 1.389 3.102 3.102 3.102s3.102-1.389 3.102-3.102c0-1.714-1.389-3.103-3.102-3.103z"/><path d="m326.803 383.875c-1.713 0-3.102 1.389-3.102 3.103 0 1.713 1.389 3.102 3.102 3.102s3.102-1.389 3.102-3.102c0-1.714-1.389-3.103-3.102-3.103z"/><path d="m337.179 393.498c-1.713 0-3.102 1.389-3.102 3.103 0 1.713 1.389 3.102 3.102 3.102s3.102-1.389 3.102-3.102c0-1.714-1.389-3.103-3.102-3.103z"/><path d="m326.803 403.875c-1.713 0-3.102 1.389-3.102 3.103 0 1.713 1.389 3.102 3.102 3.102s3.102-1.389 3.102-3.102c0-1.714-1.389-3.103-3.102-3.103z"/><path d="m337.179 413.498c-1.713 0-3.102 1.389-3.102 3.103 0 1.713 1.389 3.102 3.102 3.102s3.102-1.389 3.102-3.102c0-1.714-1.389-3.103-3.102-3.103z"/><path d="m326.803 423.875c-1.713 0-3.102 1.389-3.102 3.103 0 1.713 1.389 3.102 3.102 3.102s3.102-1.389 3.102-3.102c0-1.714-1.389-3.103-3.102-3.103z"/><path d="m337.179 433.498c-1.713 0-3.102 1.389-3.102 3.103 0 1.713 1.389 3.102 3.102 3.102s3.102-1.389 3.102-3.102c0-1.714-1.389-3.103-3.102-3.103z"/><path d="m326.803 443.875c-1.713 0-3.102 1.389-3.102 3.103 0 1.713 1.389 3.102 3.102 3.102s3.102-1.389 3.102-3.102c0-1.714-1.389-3.103-3.102-3.103z"/><path d="m317.179 393.498c-1.713 0-3.102 1.389-3.102 3.103 0 1.713 1.389 3.102 3.102 3.102s3.102-1.389 3.102-3.102c0-1.714-1.389-3.103-3.102-3.103z"/><path d="m306.803 403.875c-1.713 0-3.102 1.389-3.102 3.103 0 1.713 1.389 3.102 3.102 3.102s3.102-1.389 3.102-3.102c0-1.714-1.389-3.103-3.102-3.103z"/><path d="m317.179 413.498c-1.713 0-3.102 1.389-3.102 3.103 0 1.713 1.389 3.102 3.102 3.102s3.102-1.389 3.102-3.102c0-1.714-1.389-3.103-3.102-3.103z"/><path d="m306.803 423.875c-1.713 0-3.102 1.389-3.102 3.103 0 1.713 1.389 3.102 3.102 3.102s3.102-1.389 3.102-3.102c0-1.714-1.389-3.103-3.102-3.103z"/><path d="m317.179 433.498c-1.713 0-3.102 1.389-3.102 3.103 0 1.713 1.389 3.102 3.102 3.102s3.102-1.389 3.102-3.102c0-1.714-1.389-3.103-3.102-3.103z"/><path d="m306.803 443.875c-1.713 0-3.102 1.389-3.102 3.103 0 1.713 1.389 3.102 3.102 3.102s3.102-1.389 3.102-3.102c0-1.714-1.389-3.103-3.102-3.103z"/><path d="m297.179 393.498c-1.713 0-3.102 1.389-3.102 3.103 0 1.713 1.389 3.102 3.102 3.102s3.102-1.389 3.102-3.102c0-1.714-1.389-3.103-3.102-3.103z"/><path d="m286.803 403.875c-1.713 0-3.102 1.389-3.102 3.103 0 1.713 1.389 3.102 3.102 3.102s3.102-1.389 3.102-3.102c0-1.714-1.389-3.103-3.102-3.103z"/><path d="m297.179 413.498c-1.713 0-3.102 1.389-3.102 3.103 0 1.713 1.389 3.102 3.102 3.102s3.102-1.389 3.102-3.102c0-1.714-1.389-3.103-3.102-3.103z"/><path d="m286.803 423.875c-1.713 0-3.102 1.389-3.102 3.103 0 1.713 1.389 3.102 3.102 3.102s3.102-1.389 3.102-3.102c0-1.714-1.389-3.103-3.102-3.103z"/><path d="m297.179 433.498c-1.713 0-3.102 1.389-3.102 3.103 0 1.713 1.389 3.102 3.102 3.102s3.102-1.389 3.102-3.102c0-1.714-1.389-3.103-3.102-3.103z"/><path d="m286.803 443.875c-1.713 0-3.102 1.389-3.102 3.103 0 1.713 1.389 3.102 3.102 3.102s3.102-1.389 3.102-3.102c0-1.714-1.389-3.103-3.102-3.103z"/><path d="m300.281 456.601c0-1.713-1.389-3.103-3.102-3.103s-3.102 1.389-3.102 3.103c0 .934.421 1.761 1.074 2.329 1.594-.29 3.188-.604 4.781-.927.216-.422.349-.895.349-1.402z"/><path d="m266.803 403.875c-1.713 0-3.102 1.389-3.102 3.103 0 1.713 1.389 3.102 3.102 3.102s3.102-1.389 3.102-3.102c0-1.714-1.389-3.103-3.102-3.103z"/><path d="m277.179 413.498c-1.713 0-3.102 1.389-3.102 3.103 0 1.713 1.389 3.102 3.102 3.102s3.102-1.389 3.102-3.102c0-1.714-1.389-3.103-3.102-3.103z"/><path d="m266.803 423.875c-1.713 0-3.102 1.389-3.102 3.103 0 1.713 1.389 3.102 3.102 3.102s3.102-1.389 3.102-3.102c0-1.714-1.389-3.103-3.102-3.103z"/><path d="m277.179 433.498c-1.713 0-3.102 1.389-3.102 3.103 0 1.713 1.389 3.102 3.102 3.102s3.102-1.389 3.102-3.102c0-1.714-1.389-3.103-3.102-3.103z"/><path d="m266.803 443.875c-1.713 0-3.102 1.389-3.102 3.103 0 1.713 1.389 3.102 3.102 3.102s3.102-1.389 3.102-3.102c0-1.714-1.389-3.103-3.102-3.103z"/><path d="m277.179 453.498c-1.713 0-3.102 1.389-3.102 3.103 0 1.713 1.389 3.102 3.102 3.102s3.102-1.389 3.102-3.102c0-1.714-1.389-3.103-3.102-3.103z"/><path d="m257.179 413.498c-1.713 0-3.102 1.389-3.102 3.103 0 1.713 1.389 3.102 3.102 3.102s3.102-1.389 3.102-3.102c0-1.714-1.389-3.103-3.102-3.103z"/><path d="m246.803 423.875c-1.713 0-3.102 1.389-3.102 3.103 0 1.713 1.389 3.102 3.102 3.102s3.102-1.389 3.102-3.102c0-1.714-1.389-3.103-3.102-3.103z"/><path d="m257.179 433.498c-1.713 0-3.102 1.389-3.102 3.103 0 1.713 1.389 3.102 3.102 3.102s3.102-1.389 3.102-3.102c0-1.714-1.389-3.103-3.102-3.103z"/><path d="m246.803 443.875c-1.713 0-3.102 1.389-3.102 3.103 0 1.713 1.389 3.102 3.102 3.102s3.102-1.389 3.102-3.102c0-1.714-1.389-3.103-3.102-3.103z"/><path d="m260.281 456.601c0-1.713-1.389-3.103-3.102-3.103s-3.102 1.389-3.102 3.103c0 1.713 1.389 3.102 3.102 3.102s3.102-1.389 3.102-3.102z"/><path d="m237.179 413.498c-1.713 0-3.102 1.389-3.102 3.103 0 1.713 1.389 3.102 3.102 3.102s3.102-1.389 3.102-3.102c0-1.714-1.388-3.103-3.102-3.103z"/><path d="m226.803 423.875c-1.713 0-3.102 1.389-3.102 3.103 0 1.713 1.389 3.102 3.102 3.102s3.102-1.389 3.102-3.102c0-1.714-1.389-3.103-3.102-3.103z"/><path d="m237.179 433.498c-1.713 0-3.102 1.389-3.102 3.103 0 1.713 1.389 3.102 3.102 3.102s3.102-1.389 3.102-3.102c0-1.714-1.388-3.103-3.102-3.103z"/><path d="m226.803 443.875c-1.713 0-3.102 1.389-3.102 3.103 0 1.713 1.389 3.102 3.102 3.102s3.102-1.389 3.102-3.102c0-1.714-1.389-3.103-3.102-3.103z"/><path d="m237.179 453.498c-1.713 0-3.102 1.389-3.102 3.103 0 1.713 1.389 3.102 3.102 3.102s3.102-1.389 3.102-3.102c0-1.714-1.388-3.103-3.102-3.103z"/><path d="m217.179 413.498c-1.713 0-3.102 1.389-3.102 3.103 0 1.713 1.389 3.102 3.102 3.102s3.102-1.389 3.102-3.102c0-1.714-1.388-3.103-3.102-3.103z"/><path d="m203.7 426.977c0 1.713 1.389 3.102 3.102 3.102s3.102-1.389 3.102-3.102-1.389-3.103-3.102-3.103c-1.713.001-3.102 1.39-3.102 3.103z"/><path d="m217.179 433.498c-1.713 0-3.102 1.389-3.102 3.103 0 1.713 1.389 3.102 3.102 3.102s3.102-1.389 3.102-3.102c0-1.714-1.388-3.103-3.102-3.103z"/><path d="m206.803 450.079c1.713 0 3.102-1.389 3.102-3.102s-1.389-3.103-3.102-3.103-3.102 1.389-3.102 3.103c-.001 1.713 1.388 3.102 3.102 3.102z"/><path d="m220.281 456.601c0-1.713-1.389-3.103-3.102-3.103s-3.102 1.389-3.102 3.103c0 .736.267 1.403.696 1.935 1.326.253 2.652.495 3.978.725.912-.54 1.53-1.524 1.53-2.66z"/><path d="m197.179 413.498c-1.713 0-3.102 1.389-3.102 3.103 0 1.713 1.389 3.102 3.102 3.102s3.102-1.389 3.102-3.102c0-1.714-1.388-3.103-3.102-3.103z"/><path d="m186.803 423.875c-1.713 0-3.102 1.389-3.102 3.103 0 1.713 1.389 3.102 3.102 3.102s3.102-1.389 3.102-3.102c0-1.714-1.389-3.103-3.102-3.103z"/><path d="m197.179 433.498c-1.713 0-3.102 1.389-3.102 3.103 0 1.713 1.389 3.102 3.102 3.102s3.102-1.389 3.102-3.102c0-1.714-1.388-3.103-3.102-3.103z"/><path d="m186.803 443.875c-1.713 0-3.102 1.389-3.102 3.103 0 1.713 1.389 3.102 3.102 3.102s3.102-1.389 3.102-3.102c0-1.714-1.389-3.103-3.102-3.103z"/><path d="m177.179 413.498c-1.713 0-3.102 1.389-3.102 3.103 0 1.713 1.389 3.102 3.102 3.102s3.102-1.389 3.102-3.102c0-1.714-1.388-3.103-3.102-3.103z"/><path d="m166.803 423.875c-1.713 0-3.102 1.389-3.102 3.103 0 1.713 1.389 3.102 3.102 3.102s3.102-1.389 3.102-3.102c0-1.714-1.389-3.103-3.102-3.103z"/><path d="m177.179 433.498c-1.713 0-3.102 1.389-3.102 3.103 0 1.713 1.389 3.102 3.102 3.102s3.102-1.389 3.102-3.102c0-1.714-1.388-3.103-3.102-3.103z"/><path d="m146.803 403.875c-1.713 0-3.102 1.389-3.102 3.103 0 1.713 1.389 3.102 3.102 3.102s3.102-1.389 3.102-3.102c0-1.714-1.389-3.103-3.102-3.103z"/><path d="m157.179 413.498c-1.713 0-3.102 1.389-3.102 3.103 0 1.713 1.389 3.102 3.102 3.102s3.102-1.389 3.102-3.102c0-1.714-1.388-3.103-3.102-3.103z"/><path d="m146.803 423.875c-1.713 0-3.102 1.389-3.102 3.103 0 1.713 1.389 3.102 3.102 3.102s3.102-1.389 3.102-3.102c0-1.714-1.389-3.103-3.102-3.103z"/><path d="m157.179 433.498c-1.713 0-3.102 1.389-3.102 3.103 0 1.713 1.389 3.102 3.102 3.102s3.102-1.389 3.102-3.102c0-1.714-1.388-3.103-3.102-3.103z"/><path d="m123.7 406.977c0 1.713 1.389 3.102 3.102 3.102s3.102-1.389 3.102-3.102-1.389-3.103-3.102-3.103c-1.713.001-3.102 1.39-3.102 3.103z"/><path d="m134.077 416.601c0 1.713 1.389 3.102 3.102 3.102s3.102-1.389 3.102-3.102-1.389-3.103-3.102-3.103-3.102 1.389-3.102 3.103z"/><path d="m114.077 396.601c0 1.713 1.389 3.102 3.102 3.102s3.102-1.389 3.102-3.102-1.389-3.103-3.102-3.103-3.102 1.389-3.102 3.103z"/><path d="m103.7 406.977c0 1.713 1.389 3.102 3.102 3.102s3.102-1.389 3.102-3.102-1.389-3.103-3.102-3.103c-1.713.001-3.102 1.39-3.102 3.103z"/><path d="m120.282 416.601c0-1.713-1.389-3.103-3.102-3.103-1.641 0-2.97 1.278-3.081 2.89 1.49 1 2.988 1.987 4.495 2.958.997-.515 1.688-1.544 1.688-2.745z"/><path d="m83.7 386.977c0 1.713 1.389 3.102 3.102 3.102s3.102-1.389 3.102-3.102-1.389-3.103-3.102-3.103c-1.713.001-3.102 1.39-3.102 3.103z"/><path d="m94.077 396.601c0 1.713 1.389 3.102 3.102 3.102s3.102-1.389 3.102-3.102-1.389-3.103-3.102-3.103-3.102 1.389-3.102 3.103z"/><path d="m306.816 383.875c-1.713 0-3.102 1.389-3.102 3.103 0 1.713 1.389 3.102 3.102 3.102s3.102-1.389 3.102-3.102c0-1.714-1.389-3.103-3.102-3.103z"/><path d="m246.803 403.875c-1.713 0-3.102 1.389-3.102 3.103 0 1.713 1.389 3.102 3.102 3.102s3.102-1.389 3.102-3.102c0-1.714-1.389-3.103-3.102-3.103z"/><path d="m166.781 403.875c-1.713 0-3.102 1.389-3.102 3.103 0 1.713 1.389 3.102 3.102 3.102s3.102-1.389 3.102-3.102c0-1.714-1.389-3.103-3.102-3.103z"/><path d="m77.179 373.511c-1.713 0-3.102 1.389-3.102 3.103 0 1.713 1.389 3.102 3.102 3.102s3.102-1.389 3.102-3.102c.001-1.714-1.388-3.103-3.102-3.103z"/><path d="m66.803 363.875c-1.713 0-3.102 1.389-3.102 3.103 0 1.713 1.389 3.102 3.102 3.102s3.102-1.389 3.102-3.102c0-1.714-1.389-3.103-3.102-3.103z"/></g><path d="m502.233 177.062c-2.587-12.282-83.736-17.785-83.736-17.785s-31.864-43.72-60.764-60.023c-28.588-16.127-80.031-23.713-120.046-15.562-49.424 10.068-62.246 42.238-70.397 44.461s-36.31-19.267-81.513 6.669c-45.202 25.936-37.051 72.62-52.613 77.066s-27.418 17.044-27.418 17.044 18.379 109.39 173.573 143.028 261.46-47.399 261.46-47.399 81.313-53.213 61.454-147.499z" fill="#f9fbfc"/><path d="m464.376 198.294c-7.427-6.627-16.167-12.329-25.225-16.456-5.494-2.502-11.165-3.76-16.753-3.955 3.226-14.96-1.134-31.352-13.734-42.596-7.427-6.628-16.167-12.329-25.225-16.456-26.75-12.187-57.743 4.721-62.512 33.727-4.706 28.629-8.865 71.207 5.798 80.772 9.76 6.367 29.545-.796 48.853-10.967-4.17 28.157-6.683 65.14 6.859 73.974 14.663 9.565 51.955-11.397 76.26-27.241 24.626-16.052 27.612-51.231 5.679-70.802z" fill="#eaa895"/><g fill="#e9c278"><ellipse cx="80.153" cy="232.149" rx="32.547" ry="16.635"/><ellipse cx="106.191" cy="188.753" rx="32.547" ry="16.635" transform="matrix(.837 -.547 .547 .837 -85.928 88.78)"/><ellipse cx="161.882" cy="216.961" rx="32.547" ry="16.635"/><ellipse cx="203.108" cy="175.011" rx="16.635" ry="32.547" transform="matrix(.234 -.972 .972 .234 -14.581 331.515)"/></g></g><g fill="#31373d"><path d="m512 202.658c0-48.945-26.815-94.864-75.506-129.298-48.265-34.133-112.366-52.931-180.494-52.931s-132.229 18.798-180.494 52.931c-48.691 34.434-75.506 80.353-75.506 129.298 0 4.15.208 8.276.591 12.378-.386 5.304-.591 10.675-.591 15.996 0 31.392 7.814 62.34 23.226 91.986 14.319 27.544 34.466 52.704 59.882 74.781 15.012 13.04 31.406 24.476 48.59 34.103-.015.382-.046.762-.046 1.146 0 32.817 54.621 58.523 124.349 58.523s124.349-25.707 124.349-58.523c0-.386-.012-.771-.028-1.156 17.177-9.625 33.565-21.058 48.572-34.093 25.415-22.077 45.563-47.237 59.882-74.781 15.41-29.646 23.224-60.595 23.224-91.986 0-5.34-.199-10.716-.587-16.041.38-4.087.587-8.198.587-12.333zm-8.717 12.25c-8.98 90.324-116.451 161.886-247.283 161.886-123.717 0-226.553-63.989-244.966-147.324 4.019-3.634 12.815-10.71 23.243-13.689 8.039-2.297 10.89-11.326 14.5-22.758 5.257-16.649 12.455-39.45 39.015-54.69 32.181-18.463 54.777-11.938 68.277-8.04 5.29 1.528 9.114 2.631 12.288 1.765 3.449-.941 6.309-4.156 10.639-9.021 9.454-10.625 25.278-28.408 59.501-35.379 37.886-7.717 88.29-1.215 117.249 15.121 3.931 2.217 7.932 4.979 11.908 8.085-8.667-.462-17.403 1.428-25.373 5.681-13.607 7.261-22.845 20.148-25.346 35.356-7.868 47.867-5.318 76.404 7.581 84.818 3.093 2.018 7.002 3.024 11.723 3.024 8.693 0 20.146-3.439 34.261-10.251-5.055 39.104-1.801 62.712 9.728 70.234 3.094 2.018 7.003 3.025 11.724 3.025 14.967 0 38.066-10.127 68.958-30.264 12.911-8.416 20.983-22.064 22.145-37.444 1.148-15.185-4.678-29.68-15.983-39.769-7.733-6.901-16.807-12.821-26.241-17.119-4.426-2.016-9.04-3.324-13.71-3.945.089-.721.167-1.445.222-2.174.212-2.801.183-5.578-.071-8.309 18.043 1.059 58.493 4.7 72.347 16.424.699.59 1.538.889 2.386.937 1.249 7.07 1.901 14.267 1.901 21.57 0 1.737-.047 3.466-.119 5.191-.622.79-.958 1.807-.854 2.886.133 1.386.244 2.779.35 4.173zm-60.633-26.813c5.323 2.833 10.44 6.197 15.144 9.958l-20.113 30.834c-2.73 4.185-8.359 5.369-12.542 2.639-2.028-1.323-3.419-3.356-3.917-5.725-.499-2.368-.044-4.789 1.279-6.817zm-26.93 26.466c-2.505 3.838-3.365 8.422-2.421 12.907s3.578 8.333 7.416 10.837c2.886 1.883 6.134 2.783 9.346 2.783 5.608 0 11.111-2.741 14.398-7.778l19.455-29.824c7.928 8.24 11.944 19.346 11.068 30.948-.971 12.846-7.712 24.244-18.494 31.272-35.577 23.192-62.434 33.379-71.839 27.242-9.404-6.135-10.905-34.817-4.016-76.725 2.088-12.7 9.804-23.463 21.169-29.528 10.481-5.594 22.548-6.322 33.465-2.1zm3.551-43.135c-.061.807-.153 1.605-.259 2.4-7.216.276-14.384 2.185-21.02 5.727-13.607 7.262-22.845 20.148-25.346 35.356-.265 1.614-.517 3.202-.758 4.771-20.962 10.77-36.312 14.59-42.95 10.261-9.404-6.135-10.906-34.818-4.016-76.726 2.088-12.7 9.804-23.463 21.169-29.528 5.996-3.2 12.51-4.808 19.032-4.808 4.878 0 9.76.905 14.43 2.712l-19.545 29.963c-2.505 3.838-3.365 8.422-2.421 12.906s3.578 8.333 7.416 10.837c2.822 1.841 6.047 2.793 9.34 2.793 1.185 0 2.379-.124 3.567-.373 4.484-.944 8.333-3.577 10.837-7.415l19.456-29.824c7.927 8.239 11.944 19.345 11.068 30.948zm-37.305-5.546c-1.322 2.027-3.355 3.418-5.723 3.916-2.367.499-4.789.045-6.817-1.278s-3.419-3.356-3.917-5.724c-.499-2.368-.044-4.789 1.279-6.817l20.15-30.889c5.322 2.831 10.439 6.196 15.144 9.957zm-125.966-137.356c121.003 0 222.019 61.215 243.621 141.87-19.223-10.924-57.775-14.032-73.831-14.871-2.412-8.873-7.344-16.931-14.431-23.255-7.735-6.902-16.809-12.822-26.241-17.119-.067-.031-.135-.055-.202-.085-8.053-7.557-16.707-14.547-25.194-19.334-30.46-17.183-83.27-24.063-122.842-16.003-36.862 7.509-54.472 27.298-63.932 37.93-2.474 2.781-5.554 6.242-6.717 6.592-1.046.25-4.859-.848-7.917-1.731-13.768-3.976-39.392-11.376-74.55 8.796-29.299 16.811-37.367 42.364-42.706 59.273-2.877 9.113-5.15 16.311-9.004 17.412-9.398 2.685-17.436 8.052-22.699 12.262-.256-1.782-1.26-14.307-1.26-17.602 0-96.019 111.21-174.135 247.905-174.135zm0 454.952c-60.424 0-111.842-21.234-115.971-47.079 37.348 19.369 77.914 30.206 115.971 30.206 38.06 0 78.629-10.838 115.979-30.209-4.125 25.847-55.552 47.082-115.979 47.082zm0-24.968c-108.418 0-233.467-88.876-246.729-206.882 11.705 30.134 34.249 57.711 66.234 80.331 48.266 34.133 112.367 52.932 180.495 52.932s132.229-18.798 180.494-52.931c31.985-22.62 54.529-50.197 66.234-80.331-13.261 118.005-138.31 206.881-246.728 206.881z"/><path d="m323.16 285.254c5.169-4.182 8.477-10.574 8.477-17.741 0-12.599-10.214-22.812-22.813-22.812s-22.813 10.214-22.813 22.812c0 11.984 9.242 21.803 20.987 22.733-5.169 4.182-8.477 10.574-8.477 17.741 0 12.599 10.214 22.812 22.813 22.812s22.813-10.214 22.813-22.812c0-11.983-9.243-21.802-20.987-22.733z"/><path d="m260.254 293.269c-8.314 0-15.587 4.449-19.574 11.095.288-1.447.441-2.942.441-4.473 0-12.599-10.213-22.813-22.812-22.813s-22.813 10.214-22.813 22.813c0 11.827 9.001 21.551 20.526 22.698-1.413 2.968-2.206 6.288-2.206 9.795 0 12.599 10.214 22.813 22.813 22.813 10.363 0 19.106-6.912 21.885-16.376.575.043 1.154.073 1.741.073 12.599 0 22.813-10.214 22.813-22.813-.001-12.598-10.215-22.812-22.814-22.812z"/><path d="m152.814 280.759c-12.6 0-22.813 10.214-22.813 22.813s10.214 22.812 22.813 22.812 22.812-10.214 22.812-22.812c0-12.599-10.213-22.813-22.812-22.813z"/><path d="m135.404 188.029c4.222-7.378 4.728-14.227 1.425-19.284-3.302-5.058-9.775-7.35-18.23-6.448-7.489.797-15.912 4.043-23.718 9.141-17.18 11.22-25.671 27.616-19.329 37.326.675 1.033 1.491 1.943 2.42 2.742-19.466.618-34.413 9.462-34.413 20.645 0 11.598 16.074 20.682 36.594 20.682s36.595-9.085 36.595-20.682c0-7.697-7.085-14.283-17.846-17.846 6.088-1.444 12.527-4.269 18.597-8.233 7.804-5.099 14.164-11.506 17.905-18.043zm-26.751 44.12c0 5.942-12.188 12.588-28.5 12.588-16.311 0-28.499-6.646-28.499-12.588s12.188-12.588 28.499-12.588c16.311.001 28.5 6.646 28.5 12.588zm-15.728-24.988c-5.2.552-9.062-.476-10.597-2.824-3.249-4.975 3.322-17.204 16.98-26.123 6.753-4.41 13.908-7.204 20.148-7.868.923-.098 1.803-.147 2.636-.147 3.86 0 6.698 1.039 7.96 2.971 1.534 2.349.923 6.299-1.674 10.838-3.117 5.447-8.553 10.875-15.306 15.285-6.752 4.409-13.907 7.204-20.147 7.868z"/><path d="m161.881 196.278c-20.52 0-36.594 9.085-36.594 20.682 0 11.598 16.074 20.683 36.594 20.683s36.595-9.085 36.595-20.683c0-11.597-16.074-20.682-36.595-20.682zm0 33.27c-16.311 0-28.499-6.646-28.499-12.588s12.188-12.588 28.499-12.588c16.312 0 28.5 6.646 28.5 12.588.001 5.942-12.188 12.588-28.5 12.588z"/><path d="m198.267 195.119c5.037 1.213 10.061 1.823 14.789 1.823 3.779 0 7.368-.39 10.621-1.173 8.265-1.99 13.595-6.32 15.008-12.193 2.714-11.275-10.787-23.87-30.736-28.673-9.063-2.182-18.087-2.413-25.41-.65-8.264 1.99-13.595 6.32-15.008 12.193-2.715 11.276 10.787 23.87 30.736 28.673zm-22.867-26.778c.657-2.727 3.949-4.993 9.033-6.217 2.652-.638 5.6-.956 8.731-.956 4.074 0 8.456.538 12.89 1.605 15.858 3.818 26.152 13.132 24.762 18.909-.657 2.727-3.949 4.993-9.033 6.217-6.103 1.468-13.779 1.239-21.621-.649-15.858-3.818-26.153-13.132-24.762-18.909z"/><path d="m206.005 253.185c-.706 2.121.44 4.413 2.56 5.12.425.141.856.208 1.281.208 1.694 0 3.274-1.073 3.839-2.768.046-.137 4.703-13.748 16.946-19.133 7.855-3.456 17.281-2.776 28.014 2.019 2.04.911 4.435-.002 5.347-2.044.912-2.041-.004-4.435-2.044-5.346-12.908-5.767-24.54-6.452-34.576-2.038-15.491 6.814-21.133 23.284-21.367 23.982z"/><path d="m306.007 124.842c1.214-1.876.677-4.382-1.199-5.597-.3-.193-29.176-18.388-50.53 8.696-4.239-2.397-8.724-3.87-13.435-4.384-16.239-1.769-28.968 8.541-29.501 8.981-1.725 1.421-1.972 3.972-.551 5.697s3.97 1.971 5.697.551c.105-.086 10.607-8.587 23.478-7.183 8.09.881 15.501 5.551 22.028 13.878.798 1.018 1.987 1.55 3.189 1.55.874 0 1.753-.281 2.494-.862 1.759-1.378 2.067-3.923.689-5.682-2.368-3.021-4.857-5.639-7.457-7.867 16.772-20.697 38.526-7.205 39.511-6.576 1.874 1.212 4.376.672 5.587-1.202z"/></g></g></svg>